<?xml version="1.0" standalone="no"?>
<!DOCTYPE svg PUBLIC "-//W3C//DTD SVG 1.1//EN" "http://www.w3.org/Graphics/SVG/1.1/DTD/svg11.dtd" >
<svg xmlns="http://www.w3.org/2000/svg" xmlns:xlink="http://www.w3.org/1999/xlink" version="1.1">
<metadata></metadata>
<defs>
<font id="camingocoderegular" horiz-adv-x="1126" >
<font-face units-per-em="2048" ascent="1536" descent="-512" />
<missing-glyph horiz-adv-x="500" />
<glyph />
<glyph />
<glyph unicode="&#xd;" />
<glyph unicode=" " />
<glyph unicode="!" d="M444 102q0 33 5.5 55.5t18.5 36t36.5 19.5t58.5 6t58.5 -6t37 -19.5t18.5 -36t5 -55.5q0 -35 -5 -57t-18.5 -35.5t-37 -19.5t-58.5 -6t-58.5 6t-36.5 19.5t-18.5 36t-5.5 56.5zM475 1511h176l-16 -1011h-143z" />
<glyph unicode="&#x22;" d="M286 1511h168l-22 -505h-123zM674 1511h168l-22 -505h-123z" />
<glyph unicode="#" d="M35 375v92h229l76 393h-215v94h233l72 365h102l-69 -365h311l72 365h102l-71 -365h215v-94h-234l-76 -393h219v-92h-237l-72 -375h-102l72 375h-312l-74 -375h-102l74 375h-213zM369 467h311l76 393h-312z" />
<glyph unicode="$" d="M143 29l23 125q49 -14 112.5 -27.5t127.5 -20.5l104 519q-100 43 -169 80.5t-110 80.5t-58 94.5t-17 123.5q0 166 119.5 255t342.5 89h41l41 202h117l-45 -213q51 -4 101.5 -15t93.5 -24l-23 -122q-43 10 -94 21t-105 15l-98 -487q109 -45 178.5 -84t110.5 -82t57.5 -96 t16.5 -125q0 -84 -32 -152.5t-92.5 -115.5t-147.5 -73t-197 -26h-24.5t-24.5 2l-43 -202h-115l43 211q-29 2 -60.5 8t-62.5 12t-59.5 13.5t-51.5 13.5zM307 1014q0 -39 10.5 -71t36 -59.5t71.5 -54t118 -57.5l90 451h-33q-154 0 -223.5 -57.5t-69.5 -151.5zM516 98h39 q152 0 226.5 63t74.5 167q0 41 -8 72.5t-35 60t-75 57.5t-124 62z" />
<glyph unicode="%" d="M76 1044q0 82 16.5 137.5t45 89.5t70.5 49t95 15q51 0 92 -14t69 -47t42 -88t14 -137t-15.5 -138.5t-45 -90.5t-71.5 -48t-93 -14q-53 0 -94 13t-69 46t-42 89.5t-14 137.5zM96 10l848 1348l86 -49l-850 -1348zM188 1049q0 -61 8.5 -100.5t22.5 -62t33.5 -30.5t44.5 -8 q27 0 47.5 8t34.5 29.5t22.5 59.5t8.5 99t-8.5 100.5t-22.5 61t-34.5 29.5t-43.5 8q-27 0 -47.5 -8t-34.5 -28.5t-22.5 -59.5t-8.5 -98zM606 270q0 84 15.5 139.5t45 89t71.5 49t93 15.5q53 0 94.5 -14t69 -47t42 -88.5t14.5 -139.5q0 -82 -16.5 -138t-45 -90t-70.5 -48 t-96 -14q-51 0 -92 14t-68.5 47t-42 88t-14.5 137zM717 274q0 -61 8 -100t22.5 -61.5t35 -30.5t42.5 -8q27 0 47.5 8t35 29.5t22.5 59.5t8 99t-8 100.5t-22.5 62t-34 30.5t-44.5 8q-27 0 -47 -8t-34.5 -29.5t-22.5 -59.5t-8 -100z" />
<glyph unicode="&#x26;" d="M72 369q0 72 18.5 136t53 120.5t81.5 105.5t105 90q-29 39 -57.5 82t-50 88t-35 94.5t-13.5 102.5q0 170 95.5 261t271.5 91q84 0 146.5 -22.5t102 -60.5t59 -90t19.5 -112q0 -59 -17 -113.5t-52 -107.5l-111 72q18 35 25.5 69.5t7.5 69.5t-11.5 65.5t-34 54.5t-58 37 t-87.5 13q-98 0 -152 -56t-54 -167q0 -47 11 -89t33.5 -83t54.5 -85t73 -97l338 -435q25 74 39 167.5t18 205.5h135q-4 -133 -27.5 -260t-72.5 -229l180 -234l-115 -84l-147 189q-68 -86 -161 -136.5t-218 -50.5q-90 0 -163 28t-124 79t-78.5 124.5t-27.5 166.5zM221 377 q0 -66 19.5 -118t53.5 -88t81 -55.5t102 -19.5q100 0 169 44t120 118l-356 459q-86 -61 -137.5 -145.5t-51.5 -194.5z" />
<glyph unicode="'" d="M479 1511h168l-22 -505h-123z" />
<glyph unicode="(" d="M352 627q0 150 29 282.5t84 254.5t136 235.5t185 222.5l109 -72q-94 -100 -167 -206.5t-122 -220t-74.5 -237.5t-25.5 -259q0 -137 26.5 -260t75.5 -237t122 -219.5t167 -205.5l-111 -72q-104 106 -185 220t-136 236t-84 255t-29 283z" />
<glyph unicode=")" d="M229 1548l111 74q104 -109 185 -222.5t136.5 -235.5t84 -255t28.5 -280q0 -150 -28.5 -284t-84 -256t-136.5 -235.5t-185 -220.5l-109 70q94 100 167 205.5t122 220.5t75 239t26 261q0 135 -27 258t-76 236.5t-121.5 219t-167.5 205.5z" />
<glyph unicode="*" d="M104 1026l76 131l352 -246l-49 408h160l-51 -410l354 248l74 -129l-399 -168l401 -170l-76 -131l-352 246l49 -408h-160l52 410l-355 -248l-74 129l400 170z" />
<glyph unicode="+" d="M102 524v125h392v400h135v-400h395v-125h-395v-401h-135v401h-392z" />
<glyph unicode="," d="M225 -322q82 86 145.5 162t118.5 158q-25 12 -37 35.5t-12 72.5q0 37 6.5 59.5t20.5 37t37.5 20.5t60.5 6q35 0 59.5 -6t38 -20.5t19.5 -37t6 -59.5q0 -43 -8 -69.5t-25 -52.5q-25 -37 -62.5 -83t-85.5 -96.5t-101.5 -100.5t-106.5 -97z" />
<glyph unicode="-" d="M240 471v137h647v-137h-647z" />
<glyph unicode="." d="M438 106q0 37 6.5 59.5t20.5 37t37.5 20.5t60.5 6t60.5 -6t38 -20.5t20.5 -37t6 -59.5q0 -35 -6 -57t-20.5 -37.5t-38 -21.5t-60.5 -6t-60.5 6t-37.5 21.5t-20.5 38t-6.5 56.5z" />
<glyph unicode="/" d="M88 -229l750 1740h153l-747 -1740h-156z" />
<glyph unicode="0" d="M100 653q0 213 30 348.5t90.5 212t147.5 105.5t203 29q113 0 199 -27t142.5 -100.5t85 -206.5t28.5 -346q0 -215 -30.5 -350.5t-90 -212t-147.5 -105.5t-203 -29t-200 27t-141 100.5t-85 206.5t-29 348zM248 662q0 -78 3 -141.5t10 -116t17.5 -94.5t24.5 -74l442 952 q-33 20 -74.5 30.5t-107.5 10.5q-80 0 -139 -19.5t-98 -79t-58.5 -172t-19.5 -296.5zM379 133q35 -23 77 -33t107 -10q78 0 138.5 19.5t99.5 80t58.5 172t19.5 297.5q0 78 -3.5 142.5t-10.5 115t-17 92.5t-25 76z" />
<glyph unicode="1" d="M129 0v133h406v1008l-351 -191l-53 105l434 264h127v-1186h314v-133h-877z" />
<glyph unicode="2" d="M119 0v104l438 478q55 59 97 109t71 99.5t43 98.5t14 104q0 117 -65.5 171.5t-210.5 54.5q-84 0 -160 -11.5t-153 -33.5l-21 122q88 23 177 37.5t188 14.5q104 0 183 -20.5t129 -62.5t74.5 -104.5t24.5 -146.5q0 -74 -18.5 -137.5t-53 -124t-84 -119t-110.5 -121.5 l-352 -375h643v-137h-854z" />
<glyph unicode="3" d="M121 8l16 127q80 -16 157 -24.5t161 -8.5q86 0 151.5 20.5t109.5 57.5t65.5 88t21.5 115q0 63 -20.5 110.5t-73 79t-144.5 48t-235 16.5v125q125 0 210 25.5t137 64.5t74.5 86t22.5 92q0 98 -66.5 141t-203.5 43q-80 0 -151.5 -9t-147.5 -31l-21 124q86 20 173 32.5 t182 12.5q195 0 294 -68.5t99 -211.5q0 -131 -78 -217t-199 -131q61 -10 116.5 -33t97.5 -60.5t67 -94t25 -134.5q0 -92 -31 -169t-94.5 -132t-157.5 -87t-219 -32q-98 0 -179 9.5t-159 25.5z" />
<glyph unicode="4" d="M90 311v123l561 885h211v-870h170v-138h-170v-311h-149v311h-623zM246 449h467v725z" />
<glyph unicode="5" d="M162 8l16 127q74 -16 144.5 -24.5t150.5 -8.5q98 0 165 21.5t107.5 60.5t58 94.5t17.5 124.5q0 133 -72.5 189.5t-220.5 56.5q-37 0 -67.5 -1t-63 -4t-71.5 -7t-93 -12v694h680v-135h-544v-420q47 6 97 10t112 4q188 0 293.5 -85t105.5 -275q0 -102 -28.5 -184 t-91 -139.5t-160 -89.5t-230.5 -32q-88 0 -159.5 10.5t-145.5 24.5z" />
<glyph unicode="6" d="M160 514q0 201 20.5 355.5t78.5 260t162.5 159.5t272.5 54q68 0 128.5 -7t117.5 -21l-20 -123q-55 10 -110.5 16t-119.5 6q-125 0 -195.5 -38.5t-107.5 -109.5t-49 -168t-19 -214q72 45 150 71.5t160 26.5q180 0 276 -96t96 -283q0 -98 -27.5 -178t-82.5 -135t-135 -87 t-183 -32q-207 0 -310 129t-103 414zM317 494q0 -100 15.5 -175t48.5 -124.5t82 -73t121 -23.5q131 0 195.5 81t64.5 216q0 127 -60.5 193.5t-187.5 66.5q-70 0 -134.5 -24.5t-144.5 -77.5v-59z" />
<glyph unicode="7" d="M131 1184v135h873v-107q-70 -156 -134.5 -305t-125 -298.5l-121 -299t-119.5 -309.5h-168q63 160 124.5 309.5t123 294t124 287.5t130.5 293h-707z" />
<glyph unicode="8" d="M145 322q0 72 24 129t64.5 101t95 78t115.5 60q-59 31 -105 63.5t-80 73.5t-51.5 91.5t-17.5 113.5q0 66 26 123t76 100t122.5 68t169.5 25q96 0 167.5 -22.5t120 -61.5t72 -93.5t23.5 -119.5q0 -66 -18.5 -118t-51.5 -94t-80 -76t-106 -65q61 -29 115.5 -62.5t93 -74.5 t62.5 -93t24 -120q0 -82 -30 -151.5t-85 -119.5t-136 -78t-188 -28q-104 0 -183 26t-132 72t-80 110.5t-27 142.5zM303 338q0 -109 73 -174.5t199 -65.5q133 0 203 66.5t70 173.5q0 51 -21.5 92t-59.5 75t-91.5 62.5t-116.5 57.5q-119 -47 -187.5 -116t-68.5 -171zM348 1032 q0 -49 16.5 -86t48 -67.5t77 -58t102.5 -54.5q113 49 167 109.5t54 152.5q0 39 -15.5 74t-44 61.5t-73.5 42t-105 15.5q-117 0 -172 -56.5t-55 -132.5z" />
<glyph unicode="9" d="M125 915q0 98 27.5 178.5t83 136.5t135.5 87t182 31q207 0 310.5 -130.5t103.5 -412.5q0 -201 -20.5 -356.5t-79 -261t-163 -160t-272.5 -54.5q-78 0 -144.5 9.5t-142.5 27.5l21 125q76 -18 136 -25.5t134 -7.5q125 0 195.5 39t107.5 110t49.5 169t18.5 215 q-72 -45 -149.5 -70.5t-159.5 -25.5q-180 0 -276.5 95t-96.5 281zM283 926q0 -129 60 -195.5t187 -66.5q70 0 134.5 24.5t144.5 77.5v59q0 100 -15.5 175t-48 124.5t-82 73t-120.5 23.5q-131 0 -195.5 -81t-64.5 -214z" />
<glyph unicode=":" d="M438 106q0 37 6.5 59.5t20.5 37t37.5 20.5t60.5 6t60.5 -6t38 -20.5t20.5 -37t6 -59.5q0 -35 -6 -57t-20.5 -37.5t-38 -21.5t-60.5 -6t-60.5 6t-37.5 21.5t-20.5 38t-6.5 56.5zM438 774q0 35 6.5 58.5t20.5 39t37.5 20.5t60.5 5t60.5 -5t38 -20.5t20.5 -39t6 -58.5 t-6 -58.5t-20.5 -37.5t-38 -20.5t-60.5 -6.5t-60.5 6.5t-37.5 20.5t-20.5 37.5t-6.5 58.5z" />
<glyph unicode=";" d="M225 -322q78 86 142.5 162t119.5 158q-25 12 -37 35.5t-12 72.5q0 37 6.5 59.5t20.5 37t37.5 20.5t60.5 6t60.5 -6t38 -20.5t20.5 -37t6 -59.5q0 -43 -9 -69.5t-26 -52.5q-23 -37 -61.5 -83t-86.5 -96.5t-101.5 -100.5t-106.5 -97zM438 774q0 35 6.5 58.5t20.5 39 t37.5 20.5t60.5 5t60.5 -5t38 -20.5t20.5 -39t6 -58.5t-6 -58.5t-20.5 -37.5t-38 -20.5t-60.5 -6.5t-60.5 6.5t-37.5 20.5t-20.5 37.5t-6.5 58.5z" />
<glyph unicode="&#x3c;" d="M156 516v143l784 439v-150l-641 -360l641 -367v-149z" />
<glyph unicode="=" d="M123 332v127h881v-127h-881zM123 717v125h881v-125h-881z" />
<glyph unicode="&#x3e;" d="M186 72v149l641 361l-641 366v150l785 -443v-143z" />
<glyph unicode="?" d="M178 1475q88 25 181.5 39t197.5 14q197 0 302.5 -75t105.5 -210q0 -55 -10.5 -103t-36 -91t-68.5 -87t-107 -94q-53 -41 -89 -73.5t-57.5 -64.5t-31.5 -66.5t-10 -79.5l-2 -84h-145v86q-2 51 5 94t30.5 84t65.5 84t109 96q53 39 89 73t57.5 67.5t31 66.5t9.5 72 q0 86 -68.5 132t-204.5 46q-88 0 -169.5 -12.5t-161.5 -36.5zM365 102q0 33 5 55.5t18 36t37 19.5t58 6q35 0 57.5 -6t36 -19.5t18.5 -36t5 -55.5q0 -35 -5 -57t-18.5 -35.5t-36 -19.5t-57.5 -6t-58.5 6t-36.5 19.5t-18 36t-5 56.5z" />
<glyph unicode="@" d="M80 498q0 264 45 445t126 295t190.5 164t240.5 50q96 0 162.5 -30.5t106.5 -85t57.5 -127t17.5 -156.5v-807h-117l-8 92q-57 -49 -118.5 -80t-141.5 -31q-111 0 -180.5 81t-69.5 241q0 90 23.5 159.5t74 116.5t129 72t193.5 25h74v118q0 59 -9.5 113.5t-33 92.5t-66 60.5 t-110.5 22.5q-94 0 -175 -42t-141.5 -138t-95.5 -253t-35 -390q0 -164 22.5 -289t71.5 -210t125 -129t183 -44q63 0 118.5 13.5t110.5 31.5l14 -117q-57 -23 -123.5 -37t-138.5 -14q-137 0 -235.5 53.5t-162 154.5t-94 246.5t-30.5 332.5zM532 561q0 -106 40 -159.5 t100 -53.5q53 0 101 25.5t112 77.5v360h-70q-80 0 -134 -15.5t-87 -47t-47.5 -78.5t-14.5 -109z" />
<glyph unicode="A" d="M29 0l415 1423h236l418 -1423h-172l-115 393h-506l-115 -393h-161zM334 522h448l-108 387q-18 57 -32.5 107.5t-29 98.5t-27 97.5t-26.5 102.5h-2q-16 -53 -28.5 -102.5t-26 -97.5t-27.5 -98t-31 -108z" />
<glyph unicode="B" d="M154 0v1423h368q125 0 215 -15t148.5 -53t86 -102.5t27.5 -162.5q0 -141 -59 -222.5t-162 -113.5q53 -8 100.5 -31t83 -64t56 -102t20.5 -145q0 -104 -29.5 -182t-91 -128.5t-155.5 -76t-225 -25.5h-383zM317 127h228q180 0 253.5 67.5t73.5 208.5q0 70 -16 121t-56 85 t-107.5 50.5t-170.5 16.5h-205v-549zM317 801h207q72 0 129.5 13t98.5 44t62.5 82t21.5 127q0 72 -17.5 116t-56.5 69.5t-99.5 34.5t-146.5 9h-199v-495z" />
<glyph unicode="C" d="M117 707q0 225 40 368.5t114.5 225t182 113.5t242.5 32q86 0 168 -12.5t150 -30.5l-23 -127q-63 18 -140 28.5t-151 10.5q-98 0 -176 -22.5t-132 -87t-82.5 -182.5t-28.5 -308q0 -193 26.5 -311.5t78.5 -184t131 -88t183 -22.5q74 0 149 12t142 31l23 -127 q-74 -18 -160 -33t-172 -15q-143 0 -247.5 30t-175.5 110t-106.5 222t-35.5 368z" />
<glyph unicode="D" d="M127 0v1423h387q137 0 237.5 -28.5t165 -105.5t95 -213t30.5 -353t-32.5 -357.5t-99 -221.5t-168 -112.5t-238.5 -31.5h-377zM291 129h217q94 0 164.5 23.5t117 86t69 177t22.5 299.5q0 184 -22.5 297.5t-68 176t-116 84t-166.5 21.5h-217v-1165z" />
<glyph unicode="E" d="M186 0v1423h793v-129h-631v-493h584v-127h-584v-545h631v-129h-793z" />
<glyph unicode="F" d="M201 0v1423h792v-129h-628v-493h573v-127h-573v-674h-164z" />
<glyph unicode="G" d="M84 705q0 225 38 369.5t110.5 226t175 113.5t231.5 32q90 0 175 -12.5t161 -34.5l-19 -125q-80 18 -156.5 29.5t-156.5 11.5q-94 0 -168 -22.5t-125 -88t-78.5 -183.5t-27.5 -308q0 -193 24.5 -312.5t71.5 -185t115.5 -87.5t160.5 -22q72 0 128.5 11.5t97.5 27.5v525 h-297v127h456v-752q-74 -29 -179 -49.5t-212 -20.5q-135 0 -233 30t-164 110t-97.5 222t-31.5 368z" />
<glyph unicode="H" d="M127 0v1423h164v-618h545v618h163v-1423h-163v672h-545v-672h-164z" />
<glyph unicode="I" d="M141 0v133h340v1157h-336v133h840v-133h-340v-1157h336v-133h-840z" />
<glyph unicode="J" d="M147 16l13 131q59 -12 132 -20t152 -8q88 0 149.5 13t100.5 46t56.5 86t17.5 131v895h-549v133h713v-1013q0 -121 -29 -202t-88 -130t-149.5 -70.5t-210.5 -21.5q-88 0 -165 8t-143 22z" />
<glyph unicode="K" d="M172 0v1423h164v-678l545 678h194l-569 -688l592 -735h-203l-559 705v-705h-164z" />
<glyph unicode="L" d="M203 0v1423h162v-1290h636v-133h-798z" />
<glyph unicode="M" d="M43 0l63 1423h232l90 -368l84 -334q6 -31 13 -57.5t13.5 -54t12.5 -58.5t12 -68h4q6 37 12.5 68t12.5 58.5t12 54t14 57.5l84 338l91 364h227l63 -1423h-145l-37 856q-4 117 -5 219.5t-1 214.5h-6q-12 -66 -25.5 -121t-29.5 -122l-89 -353l-92 -366h-180l-92 366l-88 353 q-16 68 -29.5 123t-27.5 120h-7q0 -111 -1 -214t-5 -220l-35 -856h-145z" />
<glyph unicode="N" d="M123 0v1423h215l387 -891q20 -45 37.5 -87t34 -85t34 -85t37.5 -91h6q-8 96 -12 188.5t-4 184.5v866h146v-1423h-218l-385 891q-20 45 -37.5 87l-35 84t-35 85t-35.5 92h-6q6 -96 11 -188.5t5 -184.5v-866h-145z" />
<glyph unicode="O" d="M84 705q0 229 31.5 373.5t94 227.5t153 114.5t206.5 31.5q113 0 202 -29.5t149.5 -110.5t91 -224.5t30.5 -370.5t-32.5 -372.5t-96 -227.5t-153.5 -114t-205 -32q-113 0 -202 30t-148.5 111t-90 223t-30.5 370zM246 713q0 -193 21.5 -312.5t61.5 -185t99 -89.5t133 -24 t133.5 22.5t100.5 88.5t63.5 184.5t22.5 311.5t-22.5 313.5t-63.5 186t-100.5 89t-133.5 23.5t-133 -22.5t-99 -88t-61.5 -185.5t-21.5 -312z" />
<glyph unicode="P" d="M166 0v1423h397q123 0 213 -15t150.5 -57t88 -116t27.5 -193q0 -115 -30.5 -194.5t-92 -129.5t-155.5 -75t-223 -25h-213v-618h-162zM328 748h221q170 0 251 65.5t81 220.5q0 80 -18.5 131.5t-57.5 80t-100.5 39.5t-147.5 11h-229v-548z" />
<glyph unicode="Q" d="M84 705q0 229 31.5 373.5t94 227.5t153 114.5t206.5 31.5q113 0 202 -29.5t149.5 -110.5t91 -224.5t30.5 -370.5q0 -125 -10 -224.5t-29.5 -177t-49 -134t-66.5 -95.5l172 -244l-115 -75l-174 247q-43 -23 -95 -33t-120 -10q-113 0 -202 30t-148.5 111t-90 223t-30.5 370 zM246 713q0 -193 21.5 -312.5t61.5 -185t99 -89.5t133 -24q43 0 76 6.5t57 18.5l-164 231l115 76l156 -219q18 35 32.5 81t25.5 105.5t16.5 135t5.5 172.5q0 193 -22.5 313.5t-63.5 186t-100.5 89t-133.5 23.5t-133 -22.5t-99 -88t-61.5 -185.5t-21.5 -312z" />
<glyph unicode="R" d="M154 0v1423h391q131 0 220 -16t146.5 -56t82 -107.5t24.5 -172.5q0 -184 -91 -274t-284 -107l416 -690h-193l-393 674h-156v-674h-163zM317 801h222q92 0 152.5 15t97 47t52 81t15.5 119t-16.5 116t-53 71.5t-98 35.5t-149.5 10h-222v-495z" />
<glyph unicode="S" d="M127 1092q0 80 28.5 145.5t88 111.5t151.5 72.5t221 26.5q94 0 174 -12.5t150 -32.5l-20 -125q-74 18 -144.5 29.5t-163.5 11.5q-90 0 -151.5 -15.5t-101.5 -44t-58 -68.5t-18 -87t12 -83t49 -69.5t100.5 -69.5t167.5 -83q117 -55 193 -98.5t123 -90.5t66.5 -104 t19.5 -135q0 -90 -33 -164t-96.5 -124t-159.5 -79t-225 -29q-98 0 -186.5 13.5t-178.5 38.5l17 125q90 -23 173 -35.5t179 -12.5q182 0 267 68t85 182q0 51 -13.5 88t-51 72t-104 71t-173.5 87q-111 51 -185.5 93t-119.5 88t-63.5 103.5t-18.5 135.5z" />
<glyph unicode="T" d="M55 1290v133h1016v-133h-428v-1290h-162v1290h-426z" />
<glyph unicode="U" d="M119 469v954h162v-948q0 -88 12 -157.5t43 -116.5t86 -73t143 -26t142.5 26t85 74t42 116.5t11.5 156.5v948h164v-938q0 -117 -22.5 -212t-74 -161.5t-138.5 -103.5t-218 -37q-129 0 -213 34t-134 98.5t-70.5 156.5t-20.5 209z" />
<glyph unicode="V" d="M29 1423h172l241 -835q35 -115 65 -231.5t60 -241.5h2q31 125 59.5 240.5t63.5 232.5l244 835h162l-416 -1423h-236z" />
<glyph unicode="W" d="M0 1423h145l113 -856q6 -55 13.5 -105t12.5 -101.5t10 -104.5t9 -113h6q8 59 17.5 120t23.5 134l117 699h192l119 -699q14 -74 22.5 -133t16.5 -121h6q6 59 11.5 113.5t10.5 105t11 100.5t14 105l113 856h143l-186 -1423h-225l-119 698q-6 41 -11 70t-8.5 55.5t-6.5 53 t-5 59.5h-6q-2 -33 -5 -60.5t-7 -54t-8 -55.5t-11 -68l-118 -698h-224z" />
<glyph unicode="X" d="M29 0l417 725l-399 698h189l335 -596l4 2q29 55 52.5 98.5t52.5 96.5l227 399h172l-401 -696l420 -727h-189l-358 623h-4q-27 -51 -49.5 -94.5t-51.5 -94.5l-243 -434h-174z" />
<glyph unicode="Y" d="M25 1423h170l241 -448q23 -43 39.5 -77t31.5 -64.5t29.5 -63.5t32.5 -70h4q33 78 63 138.5t66 136.5l232 448h168l-459 -888v-535h-162v537z" />
<glyph unicode="Z" d="M102 0v106l711 1184h-684v133h877v-106l-713 -1184h729v-133h-920z" />
<glyph unicode="[" d="M338 -336v1876h563v-119h-416v-1638h416v-119h-563z" />
<glyph unicode="\" d="M135 1511h154l749 -1740h-155z" />
<glyph unicode="]" d="M225 -217h416v1638h-416v119h563v-1876h-563v119z" />
<glyph unicode="^" d="M86 739l393 684h168l393 -684h-155l-324 551l-321 -551h-154z" />
<glyph unicode="_" d="M0 -338h1126v-133h-1126v133z" />
<glyph unicode="`" d="M387 1430l105 104l245 -289l-75 -78z" />
<glyph unicode="a" d="M125 266q0 80 25.5 140.5t88 103.5t165 64.5t253.5 21.5h129v113q0 94 -56 141t-175 47q-76 0 -153.5 -9t-155.5 -28l-15 121q82 20 170 31.5t181 11.5q96 0 165.5 -19.5t113.5 -58.5t64.5 -96t20.5 -133v-717h-133l-10 96q-86 -47 -177 -81.5t-194 -34.5 q-135 0 -221 69.5t-86 216.5zM272 279q0 -94 51.5 -135.5t139.5 -41.5q84 0 157.5 28t165.5 81v272h-122q-117 0 -192 -12t-120 -37.5t-62.5 -64.5t-17.5 -90z" />
<glyph unicode="b" d="M164 0v1511h160v-360q0 -57 -2.5 -116.5t-6.5 -127.5l2 -2q78 49 162 84t174 35q84 0 151.5 -24.5t114 -83t72 -156.5t25.5 -248t-36 -252t-96.5 -163.5t-139 -89t-164.5 -27.5q-80 0 -146.5 21.5t-130.5 55.5l-8 -57h-131zM324 180q63 -35 117.5 -54.5t121.5 -19.5 q55 0 108.5 18.5t94.5 63.5t65.5 122t24.5 196t-17.5 194.5t-48 118.5t-75.5 58.5t-101 15.5q-70 0 -137 -29.5t-153 -87.5v-596z" />
<glyph unicode="c" d="M162 498q0 156 37 257t103.5 161.5t160.5 84t209 23.5q80 0 152.5 -10t142.5 -29l-17 -121q-68 16 -132 24.5t-142 8.5q-80 0 -145.5 -14.5t-111.5 -57.5t-70.5 -120.5t-24.5 -202.5q0 -121 21.5 -198t64.5 -122t109.5 -60.5t156.5 -15.5q66 0 135.5 9.5t134.5 25.5 l12 -121q-68 -16 -146.5 -28t-156.5 -12q-125 0 -218 23.5t-153.5 82.5t-91 159.5t-30.5 252.5z" />
<glyph unicode="d" d="M111 492q0 150 35.5 252t96 163.5t139.5 89t165 27.5q74 0 138.5 -19.5t123.5 -50.5l2 2q-4 66 -6 124.5t-2 115.5v315h160v-1511h-132l-12 106q-84 -55 -169 -90.5t-177 -35.5q-84 0 -151.5 24.5t-113.5 82.5t-71.5 156.5t-25.5 248.5zM270 498q0 -119 17.5 -195 t48.5 -118t75 -58t101 -16q70 0 137.5 29.5t153.5 86.5v598q-63 33 -117.5 52.5t-122.5 19.5q-55 0 -108.5 -17.5t-94.5 -62.5t-65.5 -123t-24.5 -196z" />
<glyph unicode="e" d="M137 498q0 160 33 262t93.5 162.5t144.5 85t186 24.5q96 0 170 -21.5t125 -73.5t75.5 -142t24.5 -230v-46t-2 -50h-688q0 -119 21.5 -190.5t62.5 -109.5t101.5 -50.5t140.5 -12.5q90 0 163.5 12.5t145.5 31.5l16 -121q-78 -23 -165 -36t-191 -13t-189.5 20t-144.5 75.5 t-91 157t-32 265.5zM299 582h541q0 100 -17.5 163.5t-50.5 99.5t-80 49t-106 13q-61 0 -113.5 -14t-89.5 -51t-58.5 -99.5t-25.5 -160.5z" />
<glyph unicode="f" d="M100 881v123h326v165q0 94 24.5 164t73.5 116t124 68.5t177 22.5q59 0 111.5 -5t99.5 -15l-18 -121q-41 8 -87 11t-100 3q-121 0 -182 -55t-61 -180v-174h424v-123h-424v-881h-162v881h-326z" />
<glyph unicode="g" d="M96 -180q0 51 16.5 92t43 71.5t60.5 53t69 39.5q-57 25 -88 61.5t-31 95.5q0 49 26.5 88t71.5 72q-49 39 -80.5 103.5t-31.5 179.5q0 190 101 273t302 83q68 0 118 -8t85 -20h315v-105l-184 -14q29 -31 47 -78t18 -129q0 -193 -101 -276t-304 -83q-61 0 -98 7.5t-68 21.5 q-33 -23 -47 -44t-14 -46q0 -16 5 -29.5t21.5 -27t47 -25.5t81.5 -22q86 -18 173 -34t153 -30q57 -12 100 -31.5t69.5 -48t40 -66.5t13.5 -89q0 -70 -25.5 -128.5t-83 -100.5t-149.5 -66.5t-223 -24.5q-127 0 -212 19.5t-138.5 56.5t-76 90t-22.5 119zM252 -166 q0 -43 13.5 -76.5t47 -57.5t91 -37t147.5 -13q92 0 153.5 16.5t98.5 42t52 61t15 72.5q0 57 -34.5 89.5t-112.5 48.5q-63 12 -137 25t-160 30q-72 -29 -123 -75t-51 -126zM307 678q0 -70 13.5 -116t43 -75.5t76.5 -41t113 -11.5q63 0 110.5 11.5t77 40t44 74.5t14.5 116 q0 68 -14.5 115t-45 74.5t-78 40t-110.5 12.5q-66 0 -112 -11.5t-75.5 -40t-43 -73.5t-13.5 -115z" />
<glyph unicode="h" d="M164 0v1511h160v-360q0 -57 -2.5 -116.5t-6.5 -129.5l2 -2q76 49 165 85t190 36q141 0 219 -78t78 -254v-692h-160v666q0 129 -50 178t-130 49q-74 0 -151 -31t-154 -88v-774h-160z" />
<glyph unicode="i" d="M131 0v123h410v758h-400v123h559v-881h308v-123h-877zM504 1339q0 31 4 50.5t18.5 33t36 18.5t55.5 5q33 0 55.5 -5t36 -18.5t17.5 -33t4 -50.5t-4 -51t-17.5 -32.5t-36 -17.5t-55.5 -5q-35 0 -56 5t-35.5 17.5t-18.5 33t-4 50.5z" />
<glyph unicode="j" d="M127 -432l12 123q47 -8 111.5 -15.5t134.5 -7.5q84 0 140.5 16.5t89 47t46 76t13.5 106.5v967h-492v123h654v-1078q0 -94 -21.5 -165.5t-73 -120t-138.5 -73t-214 -24.5q-78 0 -144.5 8.5t-117.5 16.5zM637 1339q0 31 5 50.5t18.5 33t35 18.5t56.5 5q33 0 55 -5 t35.5 -18.5t18.5 -33t5 -50.5t-5 -51t-18.5 -32.5t-36 -17.5t-54.5 -5q-35 0 -56.5 5t-35 17.5t-18.5 33t-5 50.5z" />
<glyph unicode="k" d="M178 0v1511h160v-944l493 437h203l-524 -453l541 -551h-209l-504 518v-518h-160z" />
<glyph unicode="l" d="M119 1389v122h508v-1388h370v-123h-530v1389h-348z" />
<glyph unicode="m" d="M82 0v1004h125l10 -101q51 53 106.5 87t118.5 34q68 0 112 -35t64 -90q55 53 111.5 89t122.5 36q39 0 75 -14.5t63.5 -45t43 -77.5t15.5 -117v-770h-150v739q0 45 -6 75t-18.5 47.5t-29 24.5t-34.5 7q-37 0 -77 -26.5t-97 -86.5q2 -12 2 -22v-23v-735h-147v739 q0 45 -7.5 75t-19.5 47.5t-28.5 24.5t-35.5 7q-37 0 -75.5 -26.5t-96.5 -86.5v-780h-147z" />
<glyph unicode="n" d="M164 0v1004h131l12 -107q82 55 174 91t191 36q141 0 219 -78t78 -254v-692h-160v666q0 129 -50 178t-130 49q-74 0 -151 -31t-154 -88v-774h-160z" />
<glyph unicode="o" d="M117 498q0 160 31.5 262t90 162.5t141.5 85t185 24.5q104 0 186.5 -22.5t139.5 -82t88 -160.5t31 -261q0 -158 -32 -261.5t-90.5 -164t-141 -85t-187.5 -24.5q-104 0 -186 23.5t-138.5 82t-87 161t-30.5 260.5zM279 504q0 -127 19 -207t56 -124t89.5 -59.5t119.5 -15.5 q68 0 121 15.5t89 58.5t55.5 122t19.5 206q0 129 -19.5 207.5t-56.5 122.5t-90 59.5t-121 15.5q-66 0 -119 -15.5t-89 -58.5t-55 -121.5t-19 -205.5z" />
<glyph unicode="p" d="M164 -438v1442h131l12 -107q84 55 169 91t177 36q84 0 151.5 -24.5t114 -83t72 -156.5t25.5 -248t-36 -252t-96.5 -163.5t-139 -89t-164.5 -27.5q-74 0 -138.5 19t-124.5 50l-2 -2q4 -63 6.5 -122.5t2.5 -117.5v-245h-160zM324 180q63 -35 117.5 -54.5t121.5 -19.5 q55 0 108.5 18.5t94.5 63.5t65.5 122t24.5 196t-17.5 194.5t-48 118.5t-75.5 58.5t-101 15.5q-70 0 -137 -29.5t-153 -87.5v-596z" />
<glyph unicode="q" d="M111 492q0 150 35.5 252t96 163.5t139.5 89t165 27.5q80 0 146.5 -20.5t129.5 -57.5l8 58h132v-1442h-160v291q0 55 2 115.5t6 127.5l-2 2q-78 -49 -162 -83.5t-174 -34.5q-84 0 -151.5 24.5t-113.5 82.5t-71.5 156.5t-25.5 248.5zM270 498q0 -119 17.5 -195t48.5 -118 t75 -58t101 -16q70 0 137.5 29.5t153.5 86.5v598q-63 33 -117.5 52.5t-122.5 19.5q-55 0 -108.5 -17.5t-94.5 -62.5t-65.5 -123t-24.5 -196z" />
<glyph unicode="r" d="M115 0v123h280v758h-268v123h403l13 -136q90 76 170 120t170 44q53 0 96 -9t86 -30l-35 -153q-37 23 -79 35t-97 12q-35 0 -67.5 -9.5t-68.5 -28t-75 -45t-88 -63.5v-618h344v-123h-784z" />
<glyph unicode="s" d="M178 20l17 121q80 -18 163.5 -29.5t163.5 -11.5q86 0 141.5 12.5t90 34t49 52t14.5 65.5q0 39 -12 64.5t-45 45t-89.5 38t-146.5 43.5q-92 27 -156.5 50t-105.5 55t-60.5 76t-19.5 107q0 137 108.5 209t319.5 72q37 0 75 -3t76 -7t73.5 -11.5t68.5 -15.5l-20 -119 q-68 16 -138.5 25.5t-142.5 9.5q-145 0 -205.5 -38t-60.5 -111q0 -35 12 -57.5t44 -42t85 -37t139 -39.5q96 -27 164 -51.5t111 -57.5t62.5 -79t19.5 -116q0 -137 -108.5 -215.5t-352.5 -78.5q-88 0 -171 10t-163 30z" />
<glyph unicode="t" d="M92 881v123h287v337l162 25v-362h469v-123h-469v-562q0 -55 10 -95t37.5 -65.5t74 -37.5t115.5 -12q80 0 138.5 13t89.5 23l16 -118q-39 -12 -109.5 -27.5t-169.5 -15.5q-102 0 -171.5 17t-112.5 55t-61.5 93.5t-18.5 131.5v600h-287z" />
<glyph unicode="u" d="M158 311v693h159v-666q0 -127 50.5 -177t130.5 -50q74 0 150.5 30.5t154.5 89.5v773h160v-1004h-132l-12 109q-41 -29 -85 -52.5t-89 -41t-92 -26.5t-98 -9q-141 0 -219 77.5t-78 253.5z" />
<glyph unicode="v" d="M63 1004h166l215 -549q18 -49 34 -90t29 -81t27.5 -81t30.5 -90h2q16 49 30.5 91t28 82t29 81t33.5 88l215 549h160l-391 -1004h-219z" />
<glyph unicode="w" d="M14 1004h156l104 -588q14 -76 24.5 -144.5t18.5 -146.5h7q10 51 19 92t19 90l109 477h188l109 -477q12 -45 20.5 -86t18.5 -96h6q10 78 19.5 146.5t23.5 144.5l105 588h151l-192 -1004h-209l-109 477q-8 41 -18.5 83t-18.5 91h-6q-8 -47 -16 -87t-19 -87l-108 -477h-209z " />
<glyph unicode="x" d="M68 0l381 514l-369 490h190l301 -400l4 -4q20 33 40 61.5t44 61.5l209 281h176l-376 -492l391 -512h-193l-319 426l-4 4q-20 -35 -42 -65.5t-46 -65.5l-211 -299h-176z" />
<glyph unicode="y" d="M63 1004h173l208 -531q18 -47 34 -89t29 -82t27.5 -81t28.5 -88h4q14 49 28.5 91t28 82t29 81t33.5 86l209 531h168l-463 -1149q-37 -94 -76 -153.5t-84 -95.5t-98 -49.5t-121 -13.5q-43 0 -80 4t-67 13l14 123q31 -6 63.5 -10.5t61.5 -4.5q37 0 68.5 7.5t60.5 28 t54.5 58t52.5 99.5l59 139h-51z" />
<glyph unicode="z" d="M133 0v92l619 785h-580v127h803v-89l-625 -788h639v-127h-856z" />
<glyph unicode="{" d="M166 553v125q94 14 159.5 40.5t104.5 62.5t55.5 82t16.5 104v243q0 176 94 253t295 77q18 0 36.5 -1t28.5 -3v-115q-90 0 -148 -11t-93 -35.5t-48.5 -66.5t-13.5 -102v-243q0 -70 -16 -124.5t-50 -96.5t-87.5 -71.5t-126.5 -52.5q76 -20 128 -50.5t86 -73.5t50 -100.5 t16 -129.5v-262q0 -61 14.5 -103t49.5 -69t93 -37t146 -10v-115q-10 -2 -28.5 -3t-36.5 -1q-197 0 -293 78t-96 252v264q0 59 -16.5 107.5t-55.5 85t-104.5 61.5t-159.5 41z" />
<glyph unicode="|" d="M483 -438v1949h160v-1949h-160z" />
<glyph unicode="}" d="M170 -217q90 0 148.5 10t93 36t48 68t13.5 101v270q0 70 16.5 124t50 96t86 72t128.5 52q-76 20 -128.5 51t-86 74t-50 99.5t-16.5 130.5v235q0 59 -14.5 102.5t-49 69t-93 36.5t-146.5 11v115q10 2 28.5 3t37.5 1q195 0 292 -78t97 -252v-237q0 -59 16 -107.5t55 -85.5 t104.5 -62.5t160.5 -39.5v-125q-94 -16 -160 -42t-105 -61.5t-55 -81.5t-16 -104v-270q0 -178 -94.5 -254t-294.5 -76q-18 0 -37 1t-29 3v115z" />
<glyph unicode="~" d="M88 408q-2 78 14.5 147.5t50 121.5t86 83t119.5 31q55 0 98.5 -20.5t77 -51.5t62.5 -67t56.5 -66.5t56 -51t65.5 -20.5q33 0 59.5 19.5t45 53.5t27.5 81t9 100h123q2 -78 -13 -147.5t-49 -122t-87 -83t-121 -30.5q-55 0 -97 20.5t-77 51t-62.5 66.5t-56.5 67t-57.5 51.5 t-65.5 20.5q-33 0 -59.5 -19.5t-44 -53.5t-27.5 -81t-10 -100h-123z" />
<glyph unicode="&#xa0;" />
<glyph unicode="&#xa1;" d="M444 989q0 33 5.5 55.5t18.5 36t36.5 18.5t58.5 5t58.5 -5t37 -18.5t18.5 -36t5 -55.5q0 -35 -5 -57.5t-18.5 -36.5t-37 -19.5t-58.5 -5.5t-58.5 5.5t-36.5 19.5t-18.5 36.5t-5.5 57.5zM475 -438l17 1028h143l16 -1028h-176z" />
<glyph unicode="&#xa2;" d="M156 657q0 139 36.5 233.5t105.5 150t165 79t213 23.5l33 196h112l-35 -202q51 -4 98.5 -13.5t86.5 -19.5l-19 -121q-45 10 -92 17.5t-92 11.5l-117 -703q12 -2 19.5 -2h15.5q31 0 66.5 3t70.5 8.5t69 12.5t62 13l13 -121q-31 -8 -68 -15t-76 -13.5t-78.5 -9.5t-76.5 -3 h-15.5h-21.5l-33 -202h-113l35 210q-94 12 -162.5 44t-113.5 88.5t-66.5 139.5t-21.5 195zM313 662q0 -166 56.5 -245t171.5 -98l114 695q-78 -2 -140 -16.5t-106 -54.5t-70 -107.5t-26 -173.5z" />
<glyph unicode="&#xa3;" d="M106 0v131h125q33 59 57.5 112.5t41 104.5t23.5 102.5t7 106.5v31.5t-2 29.5h-196v130h180q-8 37 -18.5 70.5t-20.5 67.5t-17 68.5t-7 77.5q0 141 107.5 226t311.5 85q98 0 163 -9t124 -25l-18 -123q-63 14 -125 21t-142 7q-131 0 -197.5 -52t-66.5 -148q0 -35 7.5 -69 t18.5 -65.5t21.5 -64.5t16.5 -67h422v-130h-404q0 -14 1 -28.5t1 -30.5q0 -55 -7 -105.5t-22.5 -101.5t-40 -105t-57.5 -116h602v-131h-889z" />
<glyph unicode="&#xa4;" d="M59 213l168 188q-27 47 -45 117t-18 156q0 82 16.5 148.5t42.5 117.5l-162 184l95 97l159 -183q45 37 104.5 61.5t143.5 24.5q86 0 145.5 -23.5t102.5 -60.5l162 181l94 -97l-164 -182q27 -53 43.5 -119.5t16.5 -148.5q0 -84 -16.5 -152.5t-45.5 -122.5l164 -186l-94 -96 l-164 186q-43 -35 -100.5 -58.5t-143.5 -23.5q-84 0 -141 24.5t-98 59.5l-170 -188zM297 674q0 -158 65.5 -245t200.5 -87q137 0 202.5 87t65.5 245q0 156 -65.5 244t-202.5 88q-135 0 -200.5 -88.5t-65.5 -243.5z" />
<glyph unicode="&#xa5;" d="M98 1319h174l170 -334q20 -39 37 -70.5t31 -62.5t28.5 -59.5t30.5 -65.5h4q16 37 30.5 68.5t30 62.5t30 60.5t30.5 66.5l166 334h168l-364 -709h288v-114h-309v-172h309v-117h-309v-207h-160v207h-309v117h309v172h-309v114h289z" />
<glyph unicode="&#xa6;" d="M483 334h160v-772h-160v772zM483 707v804h160v-804h-160z" />
<glyph unicode="&#xa7;" d="M113 618q0 98 54 161t132 110q-33 31 -56.5 71.5t-23.5 112.5q0 135 104.5 204t294.5 69q78 0 151 -11.5t130 -25.5l-22 -123q-61 14 -126 22.5t-135 8.5q-115 0 -179 -31t-64 -105q0 -37 12 -62.5t45 -51t90.5 -57t147.5 -76.5q106 -55 173.5 -98.5t105.5 -84.5 t51.5 -84t13.5 -96q0 -47 -14.5 -86t-39 -71.5t-59.5 -59.5t-74 -51q41 -35 60.5 -79t19.5 -108q0 -137 -104.5 -203.5t-294.5 -66.5q-78 0 -150.5 10.5t-130.5 26.5l23 121q61 -14 125.5 -22.5t134.5 -8.5q115 0 179.5 30.5t64.5 106.5q0 35 -12.5 60.5t-45 51t-90 57.5 t-147.5 77q-106 55 -174 99t-106 84t-51 83t-13 96zM268 631q0 -33 10.5 -59.5t41 -57.5t88 -65.5t151.5 -83.5q47 -25 89 -48.5t69 -42.5q66 39 102.5 79t36.5 108q0 31 -10 58.5t-42 57t-88.5 64.5t-150.5 84q-49 27 -88 48.5t-69 41.5q-68 -41 -104 -81t-36 -103z" />
<glyph unicode="&#xa8;" d="M262 1339q0 57 20.5 80t79.5 23q31 0 50.5 -5t31 -17.5t16.5 -32t5 -48.5q0 -27 -5 -47t-16.5 -31.5t-31 -16.5t-50.5 -5q-59 0 -79.5 21.5t-20.5 78.5zM659 1339q0 29 5.5 48.5t16.5 32t30.5 17.5t50.5 5q59 0 79.5 -23t20.5 -80t-20.5 -78.5t-79.5 -21.5q-31 0 -50.5 5 t-30.5 16.5t-16.5 32t-5.5 46.5z" />
<glyph unicode="&#xa9;" d="M18 659q0 332 143.5 509.5t403.5 177.5q262 0 402.5 -176.5t140.5 -510.5q0 -166 -36 -293.5t-106.5 -215t-173 -132.5t-231.5 -45q-262 0 -402.5 177.5t-140.5 508.5zM145 659q0 -285 103.5 -428t316.5 -143t314.5 142t101.5 429q0 285 -103.5 428.5t-316.5 143.5 t-314.5 -143.5t-101.5 -428.5zM279 655q0 121 22.5 200t63.5 127t97 67.5t124 19.5q53 0 99 -8t87 -25l-16 -106q-43 16 -82 22t-82 6t-77 -11t-57.5 -44t-36.5 -91t-13 -150t13 -150.5t37.5 -91.5t59.5 -45.5t78 -12.5q45 0 83 7.5t77 21.5l10 -106q-39 -14 -86 -24.5 t-105 -10.5q-68 0 -123 18.5t-94 63.5t-59 124t-20 199z" />
<glyph unicode="&#xaa;" d="M233 352v109h658v-109h-658zM233 793q0 55 19.5 100t66 76.5t120 48t184.5 16.5h118v82q0 66 -37.5 96.5t-132.5 30.5q-63 0 -123.5 -9t-125.5 -26l-17 97q68 16 136.5 27t150.5 11q143 0 211.5 -52t68.5 -154v-529h-108l-8 68q-70 -39 -135.5 -63.5t-153.5 -24.5 q-47 0 -89 12t-74 37t-51.5 63.5t-19.5 92.5zM358 805q0 -66 37 -92.5t101 -26.5q61 0 119.5 21.5t125.5 60.5v176h-114q-78 0 -130.5 -9t-83 -26.5t-43 -44t-12.5 -59.5z" />
<glyph unicode="&#xab;" d="M129 500l317 454l125 -61l-256 -391l258 -393l-127 -62zM549 500l305 438l125 -61l-248 -375l250 -375l-127 -64z" />
<glyph unicode="&#xac;" d="M131 524v125h844v-387h-135v262h-709z" />
<glyph unicode="&#xad;" d="M240 471v137h647v-137h-647z" />
<glyph unicode="&#xae;" d="M182 1077q0 174 101.5 274.5t279.5 100.5t279.5 -100.5t101.5 -274.5t-101.5 -274.5t-279.5 -100.5t-279.5 100.5t-101.5 274.5zM272 1077q0 -143 74 -220t217 -77t217 77t74 220t-73.5 220t-217.5 77q-143 0 -217 -76.5t-74 -220.5zM412 864v430h155q90 0 130 -28.5 t40 -87.5q0 -61 -30.5 -92t-79.5 -37l121 -185h-101l-112 178h-39v-178h-84zM496 1104h57q59 0 78.5 16.5t19.5 48.5q0 33 -17.5 45.5t-70.5 12.5h-67v-123z" />
<glyph unicode="&#xaf;" d="M297 1272v121h530v-121h-530z" />
<glyph unicode="&#xb0;" d="M254 1042q0 70 22.5 127.5t63.5 96.5t98.5 60.5t128.5 21.5q70 0 127.5 -20.5t97 -59.5t61 -94t21.5 -125q0 -72 -22.5 -129.5t-64.5 -96.5t-99 -60.5t-127 -21.5t-127 20.5t-96 59.5t-61.5 94.5t-22.5 126.5zM385 1047q0 -86 47 -140.5t133 -54.5t132 53t46 139 t-46 139.5t-134 53.5q-86 0 -132 -52t-46 -138z" />
<glyph unicode="&#xb1;" d="M123 0v123h881v-123h-881zM123 672v125h371v379h135v-379h375v-125h-375v-381h-135v381h-371z" />
<glyph unicode="&#xb2;" d="M289 713v92l209 178q86 70 131 123t45 113q0 59 -41 85.5t-119 26.5q-43 0 -87 -5t-95 -19l-13 102q59 16 114.5 22.5t115.5 6.5q127 0 198.5 -49t71.5 -141t-56 -159t-151 -140l-155 -127h381v-109h-549z" />
<glyph unicode="&#xb3;" d="M293 719l12 98q47 -8 94 -12t97 -4q100 0 152 28.5t52 90.5q0 29 -11 50.5t-42 35.5t-87 22.5t-146 8.5v96q84 0 135 9t80.5 26.5t40 39t10.5 46.5q0 41 -37 62.5t-123 21.5q-43 0 -88 -6.5t-94 -16.5l-16 96q57 12 112 19.5t111 7.5q147 0 208.5 -47t61.5 -119 q0 -70 -43 -111.5t-119 -64.5q88 -8 137.5 -53t49.5 -117q0 -104 -84 -164.5t-248 -60.5q-111 0 -215 18z" />
<glyph unicode="&#xb4;" d="M387 1245l246 289l104 -104l-274 -263z" />
<glyph unicode="&#xb5;" d="M160 -438v1442h159v-666q0 -127 50.5 -177t130.5 -50q74 0 150.5 30.5t154.5 89.5v773h160v-1004h-134l-10 109q-35 -27 -73.5 -49.5t-80.5 -40t-85 -27.5t-86 -10q-66 0 -109 19t-74 56l-2 -2q4 -63 6 -126.5t2 -121.5v-245h-159z" />
<glyph unicode="&#xb6;" d="M96 971q0 131 24.5 219t82 140t153 72.5t234.5 20.5h495v-96h-167v-1663h-115v1663h-170v-1663h-115v791q-125 2 -206 26.5t-129 85t-67.5 158.5t-19.5 246z" />
<glyph unicode="&#xb7;" d="M438 532q0 35 6.5 58.5t20.5 38t37.5 20.5t60.5 6t60.5 -6t38 -20.5t20.5 -38t6 -58.5t-6 -58t-20.5 -37.5t-38 -20.5t-60.5 -6t-60.5 6t-37.5 20.5t-20.5 38t-6.5 57.5z" />
<glyph unicode="&#xb8;" d="M373 -438l12 88q31 -6 58.5 -9t58.5 -3q66 0 95.5 23.5t29.5 66.5q0 41 -28 61.5t-101 20.5h-54l23 190h106l-12 -111q96 -4 145.5 -40.5t49.5 -114.5q0 -86 -64.5 -136.5t-181.5 -50.5q-74 0 -137 15z" />
<glyph unicode="&#xb9;" d="M260 1315l289 111h102v-609h232v-104h-613v104h250v482l-235 -74z" />
<glyph unicode="&#xba;" d="M211 956q0 111 24.5 186t70.5 119t111.5 63t149.5 19q86 0 150.5 -17t108.5 -61t65.5 -115.5t21.5 -180.5q0 -113 -23.5 -187.5t-69.5 -119t-112.5 -63.5t-150.5 -19t-148.5 17t-108.5 60t-66.5 116t-22.5 183zM256 352v109h614v-109h-614zM342 961q0 -86 13.5 -140.5 t40 -85t68.5 -42t99 -11.5t99.5 12.5t69 43t39.5 85t13 140.5t-13 140t-39.5 85t-68.5 42t-100 11q-57 0 -99 -12t-68.5 -43t-40 -85t-13.5 -140z" />
<glyph unicode="&#xbb;" d="M145 874l127 64l306 -438l-306 -437l-122 60l245 375zM553 893l127 61l317 -454l-317 -453l-123 59l256 392z" />
<glyph unicode="&#xbc;" d="M80 1198l180 121h105v-641h-123v510l-117 -64zM143 10l747 1346l86 -47l-745 -1346zM565 125v96l244 420h164v-422h78v-94h-78v-125h-115v125h-293zM670 219h188v324z" />
<glyph unicode="&#xbd;" d="M80 1198l180 121h105v-641h-123v510l-117 -64zM111 10l747 1346l86 -47l-745 -1346zM664 0v88l129 158q53 63 80.5 113.5t27.5 97.5t-25.5 70.5t-68.5 23.5q-31 0 -56.5 -4t-58.5 -15l-14 97q43 12 82 18t84 6q94 0 144 -47t50 -125q0 -76 -35.5 -137t-99.5 -131 l-100 -109h244v-104h-383z" />
<glyph unicode="&#xbe;" d="M82 682l10 92q29 -4 54.5 -8t56.5 -4q129 0 129 109q0 47 -33 72.5t-141 25.5v90q86 0 124.5 27.5t38.5 70.5q0 78 -100 78q-29 0 -54.5 -3t-56.5 -13l-12 92q35 10 74 15t76 5q98 0 148 -40t50 -111q0 -59 -33.5 -98t-80.5 -56q53 -12 91 -50t38 -103 q0 -98 -60.5 -152.5t-175.5 -54.5q-43 0 -75.5 4t-67.5 12zM156 10l747 1346l86 -47l-745 -1346zM565 125v96l244 420h164v-422h78v-94h-78v-125h-115v125h-293zM670 219h188v324z" />
<glyph unicode="&#xbf;" d="M193 -168q0 57 10 104.5t35.5 91.5t68.5 88t107 93q51 39 88 73.5t58.5 68.5t31.5 71t10 84l2 86h144l2 -86q0 -55 -7.5 -100.5t-30 -88.5t-65.5 -87t-110 -97q-51 -39 -87 -73.5t-57.5 -67.5t-31 -67t-9.5 -70q0 -88 67.5 -135.5t205.5 -47.5q86 0 167.5 12.5 t163.5 36.5l23 -120q-88 -25 -181 -40.5t-198 -15.5q-197 0 -302 74t-105 213zM555 989q0 33 5 55.5t18.5 36t37 18.5t58.5 5t58.5 -5t36.5 -18.5t18.5 -36t5.5 -55.5q0 -35 -5.5 -57.5t-18.5 -36.5t-36.5 -19.5t-58.5 -5.5t-58.5 5.5t-37 19.5t-18.5 36.5t-5 57.5z" />
<glyph unicode="&#xc0;" d="M29 0l415 1423h236l418 -1423h-172l-115 393h-506l-115 -393h-161zM292 1716l60 131l348 -184l-45 -100zM334 522h448l-108 387q-18 57 -32.5 107.5t-29 98.5t-27 97.5t-26.5 102.5h-2q-16 -53 -28.5 -102.5t-26 -97.5t-27.5 -98t-31 -108z" />
<glyph unicode="&#xc1;" d="M29 0l415 1423h236l418 -1423h-172l-115 393h-506l-115 -393h-161zM334 522h448l-108 387q-18 57 -32.5 107.5t-29 98.5t-27 97.5t-26.5 102.5h-2q-16 -53 -28.5 -102.5t-26 -97.5t-27.5 -98t-31 -108zM426 1663l349 184l59 -131l-363 -153z" />
<glyph unicode="&#xc2;" d="M29 0l415 1423h236l418 -1423h-172l-115 393h-506l-115 -393h-161zM276 1665l291 172l283 -172l-53 -98l-238 127l-231 -127zM334 522h448l-108 387q-18 57 -32.5 107.5t-29 98.5t-27 97.5t-26.5 102.5h-2q-16 -53 -28.5 -102.5t-26 -97.5t-27.5 -98t-31 -108z" />
<glyph unicode="&#xc3;" d="M29 0l415 1423h236l418 -1423h-172l-115 393h-506l-115 -393h-161zM242 1663q33 49 83 84t126 35q39 0 69.5 -11.5t57 -25.5t53 -25.5t55.5 -11.5q41 0 69.5 19.5t55.5 52.5l74 -70q-33 -49 -83 -85t-126 -36q-39 0 -70 12.5t-57.5 25.5t-53 25.5t-55.5 12.5 q-41 0 -69.5 -20.5t-55.5 -51.5zM334 522h448l-108 387q-18 57 -32.5 107.5t-29 98.5t-27 97.5t-26.5 102.5h-2q-16 -53 -28.5 -102.5t-26 -97.5t-27.5 -98t-31 -108z" />
<glyph unicode="&#xc4;" d="M29 0l415 1423h236l418 -1423h-172l-115 393h-506l-115 -393h-161zM229 1690q0 29 4.5 48t16.5 31.5t31.5 17.5t50.5 5q59 0 79.5 -22.5t20.5 -79.5q0 -27 -5 -47.5t-16.5 -32t-31 -17.5t-47.5 -6q-31 0 -50.5 6t-31.5 17.5t-16.5 32t-4.5 47.5zM334 522h448l-108 387 q-18 57 -32.5 107.5t-29 98.5t-27 97.5t-26.5 102.5h-2q-16 -53 -28.5 -102.5t-26 -97.5t-27.5 -98t-31 -108zM698 1690q0 29 4.5 48t15.5 31.5t30.5 17.5t50.5 5q61 0 81.5 -22.5t20.5 -79.5q0 -27 -4 -47.5t-16.5 -32t-32 -17.5t-49.5 -6q-31 0 -50.5 6t-30.5 17.5 t-15.5 32t-4.5 47.5z" />
<glyph unicode="&#xc5;" d="M29 0l415 1423h236l418 -1423h-172l-115 393h-506l-115 -393h-161zM334 522h448l-108 387q-18 57 -32.5 107.5t-29 98.5t-27 97.5t-26.5 102.5h-2q-16 -53 -28.5 -102.5t-26 -97.5t-27.5 -98t-31 -108zM346 1700q0 88 58.5 145.5t152.5 57.5q45 0 84 -15.5t67.5 -42 t44 -63.5t15.5 -82q0 -90 -58.5 -146.5t-152.5 -56.5t-152.5 56.5t-58.5 146.5zM449 1700q0 -51 28.5 -81t79.5 -30t80 30t29 81t-29 80.5t-80 29.5t-79.5 -29.5t-28.5 -80.5z" />
<glyph unicode="&#xc6;" d="M0 0l420 1423h667v-129h-342v-493h318v-127h-318v-545h342v-129h-503v397h-308l-114 -397h-162zM309 524h275v774h-47z" />
<glyph unicode="&#xc7;" d="M117 707q0 225 40 368.5t114.5 225t182 113.5t242.5 32q86 0 168 -12.5t150 -30.5l-23 -127q-63 18 -140 28.5t-151 10.5q-98 0 -176 -22.5t-132 -87t-82.5 -182.5t-28.5 -308q0 -193 26.5 -311.5t78.5 -184t131 -88t183 -22.5q74 0 149 12t142 31l23 -127 q-74 -18 -159 -33t-169 -15h-37l-8 -86q102 -4 152.5 -41.5t50.5 -115.5q0 -88 -66.5 -138.5t-185.5 -50.5q-37 0 -73 3t-68 12l12 90q29 -6 59.5 -9t61.5 -3q131 0 131 90q0 41 -30 60t-101 19h-62l19 181q-96 10 -174 45t-133.5 114.5t-86 215t-30.5 344.5z" />
<glyph unicode="&#xc8;" d="M186 0v1423h793v-129h-631v-493h584v-127h-584v-545h631v-129h-793zM290 1716l60 131l348 -184l-45 -100z" />
<glyph unicode="&#xc9;" d="M186 0v1423h793v-129h-631v-493h584v-127h-584v-545h631v-129h-793zM452 1663l349 184l59 -131l-363 -153z" />
<glyph unicode="&#xca;" d="M186 0v1423h793v-129h-631v-493h584v-127h-584v-545h631v-129h-793zM294 1665l291 172l283 -172l-53 -98l-238 127l-231 -127z" />
<glyph unicode="&#xcb;" d="M186 0v1423h793v-129h-631v-493h584v-127h-584v-545h631v-129h-793zM239 1690q0 29 4.5 48t16.5 31.5t31.5 17.5t50.5 5q59 0 79.5 -22.5t20.5 -79.5q0 -27 -5 -47.5t-16.5 -32t-31 -17.5t-47.5 -6q-31 0 -50.5 6t-31.5 17.5t-16.5 32t-4.5 47.5zM708 1690q0 29 4.5 48 t15.5 31.5t30.5 17.5t50.5 5q61 0 81.5 -22.5t20.5 -79.5q0 -27 -4 -47.5t-16.5 -32t-32 -17.5t-49.5 -6q-31 0 -50.5 6t-30.5 17.5t-15.5 32t-4.5 47.5z" />
<glyph unicode="&#xcc;" d="M141 0v133h340v1157h-336v133h840v-133h-340v-1157h336v-133h-840zM301 1716l60 131l348 -184l-45 -100z" />
<glyph unicode="&#xcd;" d="M141 0v133h340v1157h-336v133h840v-133h-340v-1157h336v-133h-840zM409 1663l349 184l59 -131l-363 -153z" />
<glyph unicode="&#xce;" d="M141 0v133h340v1157h-336v133h840v-133h-340v-1157h336v-133h-840zM278 1665l291 172l283 -172l-53 -98l-238 127l-231 -127z" />
<glyph unicode="&#xcf;" d="M141 0v133h340v1157h-336v133h840v-133h-340v-1157h336v-133h-840zM229 1690q0 29 4.5 48t16.5 31.5t31.5 17.5t50.5 5q59 0 79.5 -22.5t20.5 -79.5q0 -27 -5 -47.5t-16.5 -32t-31 -17.5t-47.5 -6q-31 0 -50.5 6t-31.5 17.5t-16.5 32t-4.5 47.5zM698 1690q0 29 4.5 48 t15.5 31.5t30.5 17.5t50.5 5q61 0 81.5 -22.5t20.5 -79.5q0 -27 -4 -47.5t-16.5 -32t-32 -17.5t-49.5 -6q-31 0 -50.5 6t-30.5 17.5t-15.5 32t-4.5 47.5z" />
<glyph unicode="&#xd0;" d="M20 688v125h146v610h350q137 0 236.5 -28.5t164 -105.5t95 -213t30.5 -353t-32.5 -357.5t-98 -221.5t-167 -112.5t-238.5 -31.5h-340v688h-146zM330 129h180q94 0 163.5 23.5t116 86t69 177t22.5 299.5q0 184 -21.5 297.5t-68 176t-117 84t-164.5 21.5h-180v-481h266 v-125h-266v-559z" />
<glyph unicode="&#xd1;" d="M123 0v1423h215l387 -891q20 -45 37.5 -87t34 -85t34 -85t37.5 -91h6q-8 96 -12 188.5t-4 184.5v866h146v-1423h-218l-385 891q-20 45 -37.5 87l-35 84t-35 85t-35.5 92h-6q6 -96 11 -188.5t5 -184.5v-866h-145zM246 1663q33 49 83 84t126 35q39 0 69.5 -11.5t57 -25.5 t53 -25.5t55.5 -11.5q41 0 69.5 19.5t55.5 52.5l74 -70q-33 -49 -83 -85t-126 -36q-39 0 -70 12.5t-57.5 25.5t-53 25.5t-55.5 12.5q-41 0 -69.5 -20.5t-55.5 -51.5z" />
<glyph unicode="&#xd2;" d="M84 705q0 229 31.5 373.5t94 227.5t153 114.5t206.5 31.5q113 0 202 -29.5t149.5 -110.5t91 -224.5t30.5 -370.5t-32.5 -372.5t-96 -227.5t-153.5 -114t-205 -32q-113 0 -202 30t-148.5 111t-90 223t-30.5 370zM246 713q0 -193 21.5 -312.5t61.5 -185t99 -89.5t133 -24 t133.5 22.5t100.5 88.5t63.5 184.5t22.5 311.5t-22.5 313.5t-63.5 186t-100.5 89t-133.5 23.5t-133 -22.5t-99 -88t-61.5 -185.5t-21.5 -312zM258 1716l60 131l348 -184l-45 -100z" />
<glyph unicode="&#xd3;" d="M84 705q0 229 31.5 373.5t94 227.5t153 114.5t206.5 31.5q113 0 202 -29.5t149.5 -110.5t91 -224.5t30.5 -370.5t-32.5 -372.5t-96 -227.5t-153.5 -114t-205 -32q-113 0 -202 30t-148.5 111t-90 223t-30.5 370zM246 713q0 -193 21.5 -312.5t61.5 -185t99 -89.5t133 -24 t133.5 22.5t100.5 88.5t63.5 184.5t22.5 311.5t-22.5 313.5t-63.5 186t-100.5 89t-133.5 23.5t-133 -22.5t-99 -88t-61.5 -185.5t-21.5 -312zM444 1663l349 184l59 -131l-363 -153z" />
<glyph unicode="&#xd4;" d="M84 705q0 229 31.5 373.5t94 227.5t153 114.5t206.5 31.5q113 0 202 -29.5t149.5 -110.5t91 -224.5t30.5 -370.5t-32.5 -372.5t-96 -227.5t-153.5 -114t-205 -32q-113 0 -202 30t-148.5 111t-90 223t-30.5 370zM246 713q0 -193 21.5 -312.5t61.5 -185t99 -89.5t133 -24 t133.5 22.5t100.5 88.5t63.5 184.5t22.5 311.5t-22.5 313.5t-63.5 186t-100.5 89t-133.5 23.5t-133 -22.5t-99 -88t-61.5 -185.5t-21.5 -312zM276 1665l291 172l283 -172l-53 -98l-238 127l-231 -127z" />
<glyph unicode="&#xd5;" d="M84 705q0 229 31.5 373.5t94 227.5t153 114.5t206.5 31.5q113 0 202 -29.5t149.5 -110.5t91 -224.5t30.5 -370.5t-32.5 -372.5t-96 -227.5t-153.5 -114t-205 -32q-113 0 -202 30t-148.5 111t-90 223t-30.5 370zM242 1663q33 49 83 84t126 35q39 0 69.5 -11.5t57 -25.5 t53 -25.5t55.5 -11.5q41 0 69.5 19.5t55.5 52.5l74 -70q-33 -49 -83 -85t-126 -36q-39 0 -70 12.5t-57.5 25.5t-53 25.5t-55.5 12.5q-41 0 -69.5 -20.5t-55.5 -51.5zM246 713q0 -193 21.5 -312.5t61.5 -185t99 -89.5t133 -24t133.5 22.5t100.5 88.5t63.5 184.5t22.5 311.5 t-22.5 313.5t-63.5 186t-100.5 89t-133.5 23.5t-133 -22.5t-99 -88t-61.5 -185.5t-21.5 -312z" />
<glyph unicode="&#xd6;" d="M84 705q0 229 31.5 373.5t94 227.5t153 114.5t206.5 31.5q113 0 202 -29.5t149.5 -110.5t91 -224.5t30.5 -370.5t-32.5 -372.5t-96 -227.5t-153.5 -114t-205 -32q-113 0 -202 30t-148.5 111t-90 223t-30.5 370zM227 1690q0 29 4.5 48t16.5 31.5t31.5 17.5t50.5 5 q59 0 79.5 -22.5t20.5 -79.5q0 -27 -5 -47.5t-16.5 -32t-31 -17.5t-47.5 -6q-31 0 -50.5 6t-31.5 17.5t-16.5 32t-4.5 47.5zM246 713q0 -193 21.5 -312.5t61.5 -185t99 -89.5t133 -24t133.5 22.5t100.5 88.5t63.5 184.5t22.5 311.5t-22.5 313.5t-63.5 186t-100.5 89 t-133.5 23.5t-133 -22.5t-99 -88t-61.5 -185.5t-21.5 -312zM696 1690q0 29 4.5 48t15.5 31.5t30.5 17.5t50.5 5q61 0 81.5 -22.5t20.5 -79.5q0 -27 -4 -47.5t-16.5 -32t-32 -17.5t-49.5 -6q-31 0 -50.5 6t-30.5 17.5t-15.5 32t-4.5 47.5z" />
<glyph unicode="&#xd7;" d="M125 250l348 338l-346 334l90 90l344 -336l346 338l90 -92l-346 -334l348 -338l-90 -90l-346 338l-348 -340z" />
<glyph unicode="&#xd8;" d="M84 705q0 229 31.5 373.5t94 227.5t153 114.5t206.5 31.5q63 0 119.5 -10t104.5 -33l81 186l117 -45l-92 -213q70 -78 106.5 -225t36.5 -395q0 -227 -32.5 -372.5t-96 -227.5t-153.5 -114t-205 -32q-70 0 -128 11.5t-105 37.5l-80 -186l-119 43l96 217 q-68 78 -101.5 223.5t-33.5 387.5zM229 713q0 -160 15.5 -267.5t46.5 -181.5l448 1022q-37 25 -80 35t-98 10q-80 0 -140.5 -23.5t-103.5 -91t-65.5 -188.5t-22.5 -315zM375 145q35 -29 81 -41t105 -12q80 0 141.5 23.5t104.5 90t66.5 187.5t23.5 316q0 170 -17.5 280.5 t-52.5 181.5z" />
<glyph unicode="&#xd9;" d="M119 469v954h162v-948q0 -88 12 -157.5t43 -116.5t86 -73t143 -26t142.5 26t85 74t42 116.5t11.5 156.5v948h164v-938q0 -117 -22.5 -212t-74 -161.5t-138.5 -103.5t-218 -37q-129 0 -213 34t-134 98.5t-70.5 156.5t-20.5 209zM258 1716l60 131l348 -184l-45 -100z" />
<glyph unicode="&#xda;" d="M119 469v954h162v-948q0 -88 12 -157.5t43 -116.5t86 -73t143 -26t142.5 26t85 74t42 116.5t11.5 156.5v948h164v-938q0 -117 -22.5 -212t-74 -161.5t-138.5 -103.5t-218 -37q-129 0 -213 34t-134 98.5t-70.5 156.5t-20.5 209zM446 1663l349 184l59 -131l-363 -153z" />
<glyph unicode="&#xdb;" d="M119 469v954h162v-948q0 -88 12 -157.5t43 -116.5t86 -73t143 -26t142.5 26t85 74t42 116.5t11.5 156.5v948h164v-938q0 -117 -22.5 -212t-74 -161.5t-138.5 -103.5t-218 -37q-129 0 -213 34t-134 98.5t-70.5 156.5t-20.5 209zM276 1665l291 172l283 -172l-53 -98 l-238 127l-231 -127z" />
<glyph unicode="&#xdc;" d="M119 469v954h162v-948q0 -88 12 -157.5t43 -116.5t86 -73t143 -26t142.5 26t85 74t42 116.5t11.5 156.5v948h164v-938q0 -117 -22.5 -212t-74 -161.5t-138.5 -103.5t-218 -37q-129 0 -213 34t-134 98.5t-70.5 156.5t-20.5 209zM227 1690q0 29 4.5 48t16.5 31.5t31.5 17.5 t50.5 5q59 0 79.5 -22.5t20.5 -79.5q0 -27 -5 -47.5t-16.5 -32t-31 -17.5t-47.5 -6q-31 0 -50.5 6t-31.5 17.5t-16.5 32t-4.5 47.5zM696 1690q0 29 4.5 48t15.5 31.5t30.5 17.5t50.5 5q61 0 81.5 -22.5t20.5 -79.5q0 -27 -4 -47.5t-16.5 -32t-32 -17.5t-49.5 -6 q-31 0 -50.5 6t-30.5 17.5t-15.5 32t-4.5 47.5z" />
<glyph unicode="&#xdd;" d="M25 1423h170l241 -448q23 -43 39.5 -77t31.5 -64.5t29.5 -63.5t32.5 -70h4q33 78 63 138.5t66 136.5l232 448h168l-459 -888v-535h-162v537zM448 1663l349 184l59 -131l-363 -153z" />
<glyph unicode="&#xde;" d="M166 0v1423h162v-299h235q123 0 213 -15t150.5 -57t88 -116t27.5 -191q0 -115 -30.5 -194.5t-92 -130.5t-155.5 -74.5t-223 -23.5h-213v-322h-162zM328 449h221q170 0 251 66.5t81 221.5q0 80 -18.5 130.5t-57.5 79t-100.5 39.5t-147.5 11h-229v-548z" />
<glyph unicode="&#xdf;" d="M160 0v1169q0 197 99 284t302 87q180 0 265 -68.5t85 -189.5q0 -43 -9 -78t-27.5 -66.5t-44 -63.5t-58.5 -66q-27 -29 -50.5 -54.5t-40.5 -50t-26.5 -50.5t-9.5 -54q0 -31 9.5 -53.5t30 -44t57 -46t92.5 -57.5q68 -41 113.5 -75t74.5 -68.5t42 -76.5t13 -99 q0 -139 -96 -218t-279 -79q-63 0 -123.5 7t-115.5 23l18 119q55 -14 107.5 -21.5t105.5 -7.5q117 0 171.5 47.5t54.5 120.5q0 33 -7.5 58.5t-31 50t-63.5 52.5t-103 65q-61 35 -103.5 64.5t-70 60t-41 66.5t-13.5 83q0 80 42 142.5t106 134.5q29 33 52.5 58t37.5 51 t22.5 51.5t8.5 58.5q0 68 -51.5 107.5t-153.5 39.5q-119 0 -174 -50t-55 -181v-1182h-162z" />
<glyph unicode="&#xe0;" d="M125 266q0 80 25.5 140.5t88 103.5t165 64.5t253.5 21.5h129v113q0 94 -56 141t-175 47q-76 0 -153.5 -9t-155.5 -28l-15 121q82 20 170 31.5t181 11.5q96 0 165.5 -19.5t113.5 -58.5t64.5 -96t20.5 -133v-717h-133l-10 96q-86 -47 -177 -81.5t-194 -34.5 q-135 0 -221 69.5t-86 216.5zM272 279q0 -94 51.5 -135.5t139.5 -41.5q84 0 157.5 28t165.5 81v272h-122q-117 0 -192 -12t-120 -37.5t-62.5 -64.5t-17.5 -90zM342 1430l105 104l245 -289l-75 -78z" />
<glyph unicode="&#xe1;" d="M125 266q0 80 25.5 140.5t88 103.5t165 64.5t253.5 21.5h129v113q0 94 -56 141t-175 47q-76 0 -153.5 -9t-155.5 -28l-15 121q82 20 170 31.5t181 11.5q96 0 165.5 -19.5t113.5 -58.5t64.5 -96t20.5 -133v-717h-133l-10 96q-86 -47 -177 -81.5t-194 -34.5 q-135 0 -221 69.5t-86 216.5zM272 279q0 -94 51.5 -135.5t139.5 -41.5q84 0 157.5 28t165.5 81v272h-122q-117 0 -192 -12t-120 -37.5t-62.5 -64.5t-17.5 -90zM481 1245l246 289l104 -104l-274 -263z" />
<glyph unicode="&#xe2;" d="M125 266q0 80 25.5 140.5t88 103.5t165 64.5t253.5 21.5h129v113q0 94 -56 141t-175 47q-76 0 -153.5 -9t-155.5 -28l-15 121q82 20 170 31.5t181 11.5q96 0 165.5 -19.5t113.5 -58.5t64.5 -96t20.5 -133v-717h-133l-10 96q-86 -47 -177 -81.5t-194 -34.5 q-135 0 -221 69.5t-86 216.5zM272 279q0 -94 51.5 -135.5t139.5 -41.5q84 0 157.5 28t165.5 81v272h-122q-117 0 -192 -12t-120 -37.5t-62.5 -64.5t-17.5 -90zM322 1257l270 263l273 -260l-74 -91l-201 187l-199 -182z" />
<glyph unicode="&#xe3;" d="M125 266q0 80 25.5 140.5t88 103.5t165 64.5t253.5 21.5h129v113q0 94 -56 141t-175 47q-76 0 -153.5 -9t-155.5 -28l-15 121q82 20 170 31.5t181 11.5q96 0 165.5 -19.5t113.5 -58.5t64.5 -96t20.5 -133v-717h-133l-10 96q-86 -47 -177 -81.5t-194 -34.5 q-135 0 -221 69.5t-86 216.5zM272 279q0 -94 51.5 -135.5t139.5 -41.5q84 0 157.5 28t165.5 81v272h-122q-117 0 -192 -12t-120 -37.5t-62.5 -64.5t-17.5 -90zM279 1282q12 31 31.5 60.5t44 52t55.5 36t68 13.5t67.5 -16.5t58 -37t52 -37t51.5 -16.5q37 0 60.5 29t41.5 74 l84 -58q-14 -33 -32.5 -61.5t-43 -52t-55 -36.5t-67.5 -13q-39 0 -69 16t-57.5 35.5t-52 37t-51.5 17.5q-37 0 -60.5 -28.5t-41.5 -71.5z" />
<glyph unicode="&#xe4;" d="M125 266q0 80 25.5 140.5t88 103.5t165 64.5t253.5 21.5h129v113q0 94 -56 141t-175 47q-76 0 -153.5 -9t-155.5 -28l-15 121q82 20 170 31.5t181 11.5q96 0 165.5 -19.5t113.5 -58.5t64.5 -96t20.5 -133v-717h-133l-10 96q-86 -47 -177 -81.5t-194 -34.5 q-135 0 -221 69.5t-86 216.5zM272 279q0 -94 51.5 -135.5t139.5 -41.5q84 0 157.5 28t165.5 81v272h-122q-117 0 -192 -12t-120 -37.5t-62.5 -64.5t-17.5 -90zM289 1339q0 57 20.5 80t79.5 23q31 0 50.5 -5t31 -17.5t16.5 -32t5 -48.5q0 -27 -5 -47t-16.5 -31.5t-31 -16.5 t-50.5 -5q-59 0 -79.5 21.5t-20.5 78.5zM686 1339q0 29 5.5 48.5t16.5 32t30.5 17.5t50.5 5q59 0 79.5 -23t20.5 -80t-20.5 -78.5t-79.5 -21.5q-31 0 -50.5 5t-30.5 16.5t-16.5 32t-5.5 46.5z" />
<glyph unicode="&#xe5;" d="M125 266q0 80 25.5 140.5t88 103.5t165 64.5t253.5 21.5h129v113q0 94 -56 141t-175 47q-76 0 -153.5 -9t-155.5 -28l-15 121q82 20 170 31.5t181 11.5q96 0 165.5 -19.5t113.5 -58.5t64.5 -96t20.5 -133v-717h-133l-10 96q-86 -47 -177 -81.5t-194 -34.5 q-135 0 -221 69.5t-86 216.5zM272 279q0 -94 51.5 -135.5t139.5 -41.5q84 0 157.5 28t165.5 81v272h-122q-117 0 -192 -12t-120 -37.5t-62.5 -64.5t-17.5 -90zM385 1350q0 92 58.5 151.5t148.5 59.5q45 0 84 -15.5t65.5 -44t42 -67.5t15.5 -84q0 -47 -15.5 -86t-43 -67 t-65.5 -43t-83 -15q-92 0 -149.5 58t-57.5 153zM490 1350q0 -55 26.5 -88t75.5 -33t76 33t27 88q0 53 -27 85.5t-76 32.5t-75.5 -32.5t-26.5 -85.5z" />
<glyph unicode="&#xe6;" d="M33 266q0 80 22.5 140.5t69.5 100.5t118.5 59.5t168.5 19.5h65v116q0 98 -33.5 146.5t-119.5 48.5q-49 0 -99.5 -8t-105.5 -27l-21 121q61 18 125 28.5t121 10.5q53 0 90 -9t62.5 -27.5t43 -43t27.5 -57.5q14 31 35 56.5t49.5 46t66.5 31.5t89 11q72 0 126 -21.5 t89 -74.5t53.5 -142.5t18.5 -228.5q0 -27 -1 -47t-1 -41h-465q0 -113 10 -184.5t33.5 -112.5t62.5 -56.5t96 -15.5t107.5 10.5t103.5 26.5l21 -120q-59 -20 -127 -31.5t-131 -11.5q-59 0 -101.5 10t-72 28.5t-51 44t-37.5 58.5q-70 -78 -132.5 -109.5t-140.5 -31.5 q-104 0 -169.5 71.5t-65.5 214.5zM178 274q0 -90 34 -130t85 -40t91 25t89 82v264h-61q-63 0 -109.5 -11t-75 -36t-41 -62.5t-12.5 -91.5zM627 586h321q-2 98 -11 160.5t-27.5 97.5t-47 48t-67.5 13t-70 -14t-52.5 -49t-32.5 -97.5t-13 -158.5z" />
<glyph unicode="&#xe7;" d="M162 498q0 156 37 257t103.5 161.5t160.5 84t209 23.5q80 0 152.5 -10t142.5 -29l-17 -121q-68 16 -132 24.5t-142 8.5q-80 0 -145.5 -14.5t-111.5 -57.5t-70.5 -120.5t-24.5 -202.5q0 -121 21.5 -198t64.5 -122t109.5 -60.5t156.5 -15.5q66 0 135.5 9.5t134.5 25.5 l12 -121q-68 -16 -143.5 -27t-148.5 -11h-23l-10 -93q94 -4 143 -40.5t49 -114.5q0 -86 -63.5 -136.5t-179.5 -50.5q-76 0 -138 15l13 88q31 -6 58.5 -9t57.5 -3q66 0 95.5 23.5t29.5 66.5q0 41 -28.5 61.5t-100.5 20.5h-53l21 178q-80 8 -149 32.5t-119 81t-78.5 151.5 t-28.5 245z" />
<glyph unicode="&#xe8;" d="M137 498q0 160 33 262t93.5 162.5t144.5 85t186 24.5q96 0 170 -21.5t125 -73.5t75.5 -142t24.5 -230v-46t-2 -50h-688q0 -119 21.5 -190.5t62.5 -109.5t101.5 -50.5t140.5 -12.5q90 0 163.5 12.5t145.5 31.5l16 -121q-78 -23 -165 -36t-191 -13t-189.5 20t-144.5 75.5 t-91 157t-32 265.5zM299 582h541q0 100 -17.5 163.5t-50.5 99.5t-80 49t-106 13q-61 0 -113.5 -14t-89.5 -51t-58.5 -99.5t-25.5 -160.5zM332 1430l105 104l245 -289l-75 -78z" />
<glyph unicode="&#xe9;" d="M137 498q0 160 33 262t93.5 162.5t144.5 85t186 24.5q96 0 170 -21.5t125 -73.5t75.5 -142t24.5 -230v-46t-2 -50h-688q0 -119 21.5 -190.5t62.5 -109.5t101.5 -50.5t140.5 -12.5q90 0 163.5 12.5t145.5 31.5l16 -121q-78 -23 -165 -36t-191 -13t-189.5 20t-144.5 75.5 t-91 157t-32 265.5zM299 582h541q0 100 -17.5 163.5t-50.5 99.5t-80 49t-106 13q-61 0 -113.5 -14t-89.5 -51t-58.5 -99.5t-25.5 -160.5zM473 1245l246 289l104 -104l-274 -263z" />
<glyph unicode="&#xea;" d="M137 498q0 160 33 262t93.5 162.5t144.5 85t186 24.5q96 0 170 -21.5t125 -73.5t75.5 -142t24.5 -230v-46t-2 -50h-688q0 -119 21.5 -190.5t62.5 -109.5t101.5 -50.5t140.5 -12.5q90 0 163.5 12.5t145.5 31.5l16 -121q-78 -23 -165 -36t-191 -13t-189.5 20t-144.5 75.5 t-91 157t-32 265.5zM299 582h541q0 100 -17.5 163.5t-50.5 99.5t-80 49t-106 13q-61 0 -113.5 -14t-89.5 -51t-58.5 -99.5t-25.5 -160.5zM316 1257l270 263l273 -260l-74 -91l-201 187l-199 -182z" />
<glyph unicode="&#xeb;" d="M137 498q0 160 33 262t93.5 162.5t144.5 85t186 24.5q96 0 170 -21.5t125 -73.5t75.5 -142t24.5 -230v-46t-2 -50h-688q0 -119 21.5 -190.5t62.5 -109.5t101.5 -50.5t140.5 -12.5q90 0 163.5 12.5t145.5 31.5l16 -121q-78 -23 -165 -36t-191 -13t-189.5 20t-144.5 75.5 t-91 157t-32 265.5zM272 1339q0 57 20.5 80t79.5 23q31 0 50.5 -5t31 -17.5t16.5 -32t5 -48.5q0 -27 -5 -47t-16.5 -31.5t-31 -16.5t-50.5 -5q-59 0 -79.5 21.5t-20.5 78.5zM299 582h541q0 100 -17.5 163.5t-50.5 99.5t-80 49t-106 13q-61 0 -113.5 -14t-89.5 -51 t-58.5 -99.5t-25.5 -160.5zM669 1339q0 29 5.5 48.5t16.5 32t30.5 17.5t50.5 5q59 0 79.5 -23t20.5 -80t-20.5 -78.5t-79.5 -21.5q-31 0 -50.5 5t-30.5 16.5t-16.5 32t-5.5 46.5z" />
<glyph unicode="&#xec;" d="M131 0v123h410v758h-400v123h559v-881h308v-123h-877zM352 1430l105 104l245 -289l-75 -78z" />
<glyph unicode="&#xed;" d="M131 0v123h410v758h-400v123h559v-881h308v-123h-877zM473 1245l246 289l104 -104l-274 -263z" />
<glyph unicode="&#xee;" d="M131 0v123h410v758h-400v123h559v-881h308v-123h-877zM340 1257l270 263l273 -260l-74 -91l-201 187l-199 -182z" />
<glyph unicode="&#xef;" d="M131 0v123h410v758h-400v123h559v-881h308v-123h-877zM305 1339q0 57 20.5 80t79.5 23q31 0 50.5 -5t31 -17.5t16.5 -32t5 -48.5q0 -27 -5 -47t-16.5 -31.5t-31 -16.5t-50.5 -5q-59 0 -79.5 21.5t-20.5 78.5zM702 1339q0 29 5.5 48.5t16.5 32t30.5 17.5t50.5 5 q59 0 79.5 -23t20.5 -80t-20.5 -78.5t-79.5 -21.5q-31 0 -50.5 5t-30.5 16.5t-16.5 32t-5.5 46.5z" />
<glyph unicode="&#xf0;" d="M119 496q0 145 28.5 244.5t82 160t129 87t169.5 26.5q78 0 139.5 -17.5t104.5 -42.5l2 2q-31 78 -73 153t-91 142l-198 -104l-68 96l199 107q-20 27 -54 64.5t-61 66.5l131 69q35 -35 65.5 -68.5t53.5 -64.5l194 107l68 -99l-197 -106q57 -80 104.5 -174t83.5 -197.5 t54.5 -212t18.5 -219.5q0 -158 -30 -263.5t-88.5 -166.5t-139 -88t-185.5 -27q-106 0 -188 23.5t-139.5 84t-86 162t-28.5 255.5zM281 498q0 -123 18 -201t54 -122t89.5 -60.5t122.5 -16.5q70 0 122 16.5t88 60.5t54.5 123t18.5 202q0 49 -3 89t-9.5 76.5t-14.5 72.5t-18 79 q-51 29 -111.5 50.5t-138.5 21.5q-63 0 -112.5 -16.5t-86.5 -60.5t-55 -120t-18 -194z" />
<glyph unicode="&#xf1;" d="M164 0v1004h131l12 -107q82 55 174 91t191 36q141 0 219 -78t78 -254v-692h-160v666q0 129 -50 178t-130 49q-74 0 -151 -31t-154 -88v-774h-160zM258 1282q12 31 31.5 60.5t44 52t55.5 36t68 13.5t67.5 -16.5t58 -37t52 -37t51.5 -16.5q37 0 60.5 29t41.5 74l84 -58 q-14 -33 -32.5 -61.5t-43 -52t-55 -36.5t-67.5 -13q-39 0 -69 16t-57.5 35.5t-52 37t-51.5 17.5q-37 0 -60.5 -28.5t-41.5 -71.5z" />
<glyph unicode="&#xf2;" d="M117 498q0 160 31.5 262t90 162.5t141.5 85t185 24.5q104 0 186.5 -22.5t139.5 -82t88 -160.5t31 -261q0 -158 -32 -261.5t-90.5 -164t-141 -85t-187.5 -24.5q-104 0 -186 23.5t-138.5 82t-87 161t-30.5 260.5zM279 504q0 -127 19 -207t56 -124t89.5 -59.5t119.5 -15.5 q68 0 121 15.5t89 58.5t55.5 122t19.5 206q0 129 -19.5 207.5t-56.5 122.5t-90 59.5t-121 15.5q-66 0 -119 -15.5t-89 -58.5t-55 -121.5t-19 -205.5zM321 1430l105 104l245 -289l-75 -78z" />
<glyph unicode="&#xf3;" d="M117 498q0 160 31.5 262t90 162.5t141.5 85t185 24.5q104 0 186.5 -22.5t139.5 -82t88 -160.5t31 -261q0 -158 -32 -261.5t-90.5 -164t-141 -85t-187.5 -24.5q-104 0 -186 23.5t-138.5 82t-87 161t-30.5 260.5zM279 504q0 -127 19 -207t56 -124t89.5 -59.5t119.5 -15.5 q68 0 121 15.5t89 58.5t55.5 122t19.5 206q0 129 -19.5 207.5t-56.5 122.5t-90 59.5t-121 15.5q-66 0 -119 -15.5t-89 -58.5t-55 -121.5t-19 -205.5zM453 1245l246 289l104 -104l-274 -263z" />
<glyph unicode="&#xf4;" d="M117 498q0 160 31.5 262t90 162.5t141.5 85t185 24.5q104 0 186.5 -22.5t139.5 -82t88 -160.5t31 -261q0 -158 -32 -261.5t-90.5 -164t-141 -85t-187.5 -24.5q-104 0 -186 23.5t-138.5 82t-87 161t-30.5 260.5zM279 504q0 -127 19 -207t56 -124t89.5 -59.5t119.5 -15.5 q68 0 121 15.5t89 58.5t55.5 122t19.5 206q0 129 -19.5 207.5t-56.5 122.5t-90 59.5t-121 15.5q-66 0 -119 -15.5t-89 -58.5t-55 -121.5t-19 -205.5zM291 1257l270 263l273 -260l-74 -91l-201 187l-199 -182z" />
<glyph unicode="&#xf5;" d="M117 498q0 160 31.5 262t90 162.5t141.5 85t185 24.5q104 0 186.5 -22.5t139.5 -82t88 -160.5t31 -261q0 -158 -32 -261.5t-90.5 -164t-141 -85t-187.5 -24.5q-104 0 -186 23.5t-138.5 82t-87 161t-30.5 260.5zM252 1282q12 31 31.5 60.5t44 52t55.5 36t68 13.5 t67.5 -16.5t58 -37t52 -37t51.5 -16.5q37 0 60.5 29t41.5 74l84 -58q-14 -33 -32.5 -61.5t-43 -52t-55 -36.5t-67.5 -13q-39 0 -69 16t-57.5 35.5t-52 37t-51.5 17.5q-37 0 -60.5 -28.5t-41.5 -71.5zM279 504q0 -127 19 -207t56 -124t89.5 -59.5t119.5 -15.5q68 0 121 15.5 t89 58.5t55.5 122t19.5 206q0 129 -19.5 207.5t-56.5 122.5t-90 59.5t-121 15.5q-66 0 -119 -15.5t-89 -58.5t-55 -121.5t-19 -205.5z" />
<glyph unicode="&#xf6;" d="M117 498q0 160 31.5 262t90 162.5t141.5 85t185 24.5q104 0 186.5 -22.5t139.5 -82t88 -160.5t31 -261q0 -158 -32 -261.5t-90.5 -164t-141 -85t-187.5 -24.5q-104 0 -186 23.5t-138.5 82t-87 161t-30.5 260.5zM262 1339q0 57 20.5 80t79.5 23q31 0 50.5 -5t31 -17.5 t16.5 -32t5 -48.5q0 -27 -5 -47t-16.5 -31.5t-31 -16.5t-50.5 -5q-59 0 -79.5 21.5t-20.5 78.5zM279 504q0 -127 19 -207t56 -124t89.5 -59.5t119.5 -15.5q68 0 121 15.5t89 58.5t55.5 122t19.5 206q0 129 -19.5 207.5t-56.5 122.5t-90 59.5t-121 15.5q-66 0 -119 -15.5 t-89 -58.5t-55 -121.5t-19 -205.5zM659 1339q0 29 5.5 48.5t16.5 32t30.5 17.5t50.5 5q59 0 79.5 -23t20.5 -80t-20.5 -78.5t-79.5 -21.5q-31 0 -50.5 5t-30.5 16.5t-16.5 32t-5.5 46.5z" />
<glyph unicode="&#xf7;" d="M102 524v125h922v-125h-922zM459 281q0 29 4 48t16.5 30.5t32.5 16.5t51 5t50.5 -5t31.5 -16.5t16.5 -30.5t4.5 -48q0 -31 -4.5 -50.5t-16.5 -30t-31.5 -15.5t-50.5 -5t-51 5t-32.5 15.5t-16.5 30t-4 50.5zM459 893q0 31 4 49.5t16.5 29.5t32.5 16t51 5t50.5 -5t31.5 -16 t16.5 -30.5t4.5 -48.5t-4.5 -48.5t-16.5 -30.5t-31.5 -16t-50.5 -5t-51 5t-32.5 16t-16.5 30.5t-4 48.5z" />
<glyph unicode="&#xf8;" d="M117 498q0 160 31.5 262t90 162.5t141.5 85t185 24.5q61 0 110.5 -7t86.5 -24l84 158l106 -49l-84 -160q70 -59 106 -163.5t36 -280.5q0 -158 -32 -261.5t-90.5 -164t-141 -85t-187.5 -24.5q-59 0 -108.5 8.5t-85.5 20.5l-93 -172l-108 51l94 174q-66 55 -103.5 160.5 t-37.5 284.5zM274 504q0 -117 15.5 -190.5t42.5 -114.5l370 688q-29 12 -62.5 18t-78.5 6q-68 0 -121 -15t-90 -59t-56.5 -124t-19.5 -209zM422 117q29 -12 63.5 -18.5t77.5 -6.5q68 0 122 15.5t91 59.5t56.5 124t19.5 209q0 113 -15.5 184.5t-41.5 120.5z" />
<glyph unicode="&#xf9;" d="M158 311v693h159v-666q0 -127 50.5 -177t130.5 -50q74 0 150.5 30.5t154.5 89.5v773h160v-1004h-132l-12 109q-41 -29 -85 -52.5t-89 -41t-92 -26.5t-98 -9q-141 0 -219 77.5t-78 253.5zM297 1430l105 104l245 -289l-75 -78z" />
<glyph unicode="&#xfa;" d="M158 311v693h159v-666q0 -127 50.5 -177t130.5 -50q74 0 150.5 30.5t154.5 89.5v773h160v-1004h-132l-12 109q-41 -29 -85 -52.5t-89 -41t-92 -26.5t-98 -9q-141 0 -219 77.5t-78 253.5zM473 1245l246 289l104 -104l-274 -263z" />
<glyph unicode="&#xfb;" d="M158 311v693h159v-666q0 -127 50.5 -177t130.5 -50q74 0 150.5 30.5t154.5 89.5v773h160v-1004h-132l-12 109q-41 -29 -85 -52.5t-89 -41t-92 -26.5t-98 -9q-141 0 -219 77.5t-78 253.5zM293 1257l270 263l273 -260l-74 -91l-201 187l-199 -182z" />
<glyph unicode="&#xfc;" d="M158 311v693h159v-666q0 -127 50.5 -177t130.5 -50q74 0 150.5 30.5t154.5 89.5v773h160v-1004h-132l-12 109q-41 -29 -85 -52.5t-89 -41t-92 -26.5t-98 -9q-141 0 -219 77.5t-78 253.5zM264 1339q0 57 20.5 80t79.5 23q31 0 50.5 -5t31 -17.5t16.5 -32t5 -48.5 q0 -27 -5 -47t-16.5 -31.5t-31 -16.5t-50.5 -5q-59 0 -79.5 21.5t-20.5 78.5zM661 1339q0 29 5.5 48.5t16.5 32t30.5 17.5t50.5 5q59 0 79.5 -23t20.5 -80t-20.5 -78.5t-79.5 -21.5q-31 0 -50.5 5t-30.5 16.5t-16.5 32t-5.5 46.5z" />
<glyph unicode="&#xfd;" d="M63 1004h173l208 -531q18 -47 34 -89t29 -82t27.5 -81t28.5 -88h4q14 49 28.5 91t28 82t29 81t33.5 86l209 531h168l-463 -1149q-37 -94 -76 -153.5t-84 -95.5t-98 -49.5t-121 -13.5q-43 0 -80 4t-67 13l14 123q31 -6 63.5 -10.5t61.5 -4.5q37 0 68.5 7.5t60.5 28 t54.5 58t52.5 99.5l59 139h-51zM481 1245l246 289l104 -104l-274 -263z" />
<glyph unicode="&#xfe;" d="M164 -438v1949h160v-360q0 -57 -2.5 -116.5t-6.5 -127.5l2 -2q78 49 162 84t174 35q84 0 151.5 -24.5t114 -83t72 -156.5t25.5 -248t-36 -252t-96.5 -163.5t-139 -89t-164.5 -27.5q-74 0 -138.5 19t-124.5 50l-2 -2q4 -63 6.5 -122.5t2.5 -117.5v-245h-160zM324 180 q63 -35 117.5 -54.5t121.5 -19.5q55 0 108.5 18.5t94.5 63.5t65.5 122t24.5 196t-17.5 194.5t-48 118.5t-75.5 58.5t-101 15.5q-70 0 -137 -29.5t-153 -87.5v-596z" />
<glyph unicode="&#xff;" d="M63 1004h173l208 -531q18 -47 34 -89t29 -82t27.5 -81t28.5 -88h4q14 49 28.5 91t28 82t29 81t33.5 86l209 531h168l-463 -1149q-37 -94 -76 -153.5t-84 -95.5t-98 -49.5t-121 -13.5q-43 0 -80 4t-67 13l14 123q31 -6 63.5 -10.5t61.5 -4.5q37 0 68.5 7.5t60.5 28 t54.5 58t52.5 99.5l59 139h-51zM264 1339q0 57 20.5 80t79.5 23q31 0 50.5 -5t31 -17.5t16.5 -32t5 -48.5q0 -27 -5 -47t-16.5 -31.5t-31 -16.5t-50.5 -5q-59 0 -79.5 21.5t-20.5 78.5zM661 1339q0 29 5.5 48.5t16.5 32t30.5 17.5t50.5 5q59 0 79.5 -23t20.5 -80 t-20.5 -78.5t-79.5 -21.5q-31 0 -50.5 5t-30.5 16.5t-16.5 32t-5.5 46.5z" />
<glyph unicode="&#x152;" d="M35 705q0 231 25.5 376.5t77.5 226.5t127 110.5t173 29.5q51 0 95.5 -7t80.5 -18h473v-129h-356v-493h332v-127h-332v-545h356v-129h-487q-37 -10 -83 -17.5t-95 -7.5q-98 0 -171 28t-121 107.5t-71.5 223t-23.5 371.5zM199 713q0 -195 15 -313.5t45 -184t75 -88.5 t104 -23q41 0 72 5.5t57 15.5v1173q-27 10 -57.5 15.5t-71.5 5.5q-59 0 -104 -22.5t-75 -87t-45 -183.5t-15 -313z" />
<glyph unicode="&#x153;" d="M18 498q0 160 19.5 262t57.5 162.5t95.5 85t131.5 24.5q53 0 92 -13t66.5 -35.5t45 -52.5t31.5 -65q14 35 34.5 65t51.5 51.5t71 34.5t93 13q72 0 126 -21.5t89 -74.5t53.5 -142.5t18.5 -228.5q0 -27 -1 -47t-1 -41h-465q0 -113 10 -184.5t33.5 -112.5t62.5 -56.5 t96 -15.5t107.5 10.5t103.5 26.5l21 -120q-59 -20 -127 -31.5t-131 -11.5q-113 0 -171.5 40.5t-86.5 104.5q-35 -72 -87 -113t-149 -41q-72 0 -126 23.5t-91 82t-55.5 161t-18.5 260.5zM166 504q0 -129 10 -209t29.5 -124t47.5 -59.5t66 -15.5q37 0 66 15.5t49.5 58.5 t31.5 123t11 207q0 129 -11 210t-31.5 124t-50.5 58t-67 15t-65.5 -15t-47 -58t-28.5 -123t-10 -207zM627 586h321q-2 98 -11 160.5t-27.5 97.5t-47 48t-67.5 13t-70 -14t-52.5 -49t-32.5 -97.5t-13 -158.5z" />
<glyph unicode="&#x178;" d="M25 1423h170l241 -448q23 -43 39.5 -77t31.5 -64.5t29.5 -63.5t32.5 -70h4q33 78 63 138.5t66 136.5l232 448h168l-459 -888v-535h-162v537zM229 1690q0 29 4.5 48t16.5 31.5t31.5 17.5t50.5 5q59 0 79.5 -22.5t20.5 -79.5q0 -27 -5 -47.5t-16.5 -32t-31 -17.5t-47.5 -6 q-31 0 -50.5 6t-31.5 17.5t-16.5 32t-4.5 47.5zM698 1690q0 29 4.5 48t15.5 31.5t30.5 17.5t50.5 5q61 0 81.5 -22.5t20.5 -79.5q0 -27 -4 -47.5t-16.5 -32t-32 -17.5t-49.5 -6q-31 0 -50.5 6t-30.5 17.5t-15.5 32t-4.5 47.5z" />
<glyph unicode="&#x2c6;" d="M291 1257l270 263l273 -260l-74 -91l-201 187l-199 -182z" />
<glyph unicode="&#x2dc;" d="M256 1282q12 31 31.5 60.5t44 52t55.5 36t68 13.5t67.5 -16.5t58 -37t52 -37t51.5 -16.5q37 0 60.5 29t41.5 74l84 -58q-14 -33 -32.5 -61.5t-43 -52t-55 -36.5t-67.5 -13q-39 0 -69 16t-57.5 35.5t-52 37t-51.5 17.5q-37 0 -60.5 -28.5t-41.5 -71.5z" />
<glyph unicode="&#x2000;" horiz-adv-x="951" />
<glyph unicode="&#x2001;" horiz-adv-x="1903" />
<glyph unicode="&#x2002;" horiz-adv-x="951" />
<glyph unicode="&#x2003;" horiz-adv-x="1903" />
<glyph unicode="&#x2004;" horiz-adv-x="634" />
<glyph unicode="&#x2005;" horiz-adv-x="475" />
<glyph unicode="&#x2006;" horiz-adv-x="317" />
<glyph unicode="&#x2007;" horiz-adv-x="317" />
<glyph unicode="&#x2008;" horiz-adv-x="237" />
<glyph unicode="&#x2009;" horiz-adv-x="380" />
<glyph unicode="&#x200a;" horiz-adv-x="105" />
<glyph unicode="&#x2010;" d="M240 471v137h647v-137h-647z" />
<glyph unicode="&#x2011;" d="M240 471v137h647v-137h-647z" />
<glyph unicode="&#x2012;" d="M240 471v137h647v-137h-647z" />
<glyph unicode="&#x2013;" d="M86 471v137h954v-137h-954z" />
<glyph unicode="&#x2014;" d="M0 471v137h1126v-137h-1126z" />
<glyph unicode="&#x2018;" d="M416 1100q0 43 8 70.5t25 52.5q25 37 63.5 84t86.5 97t101.5 100t106.5 98l72 -74q-80 -84 -144.5 -160t-120.5 -158q25 -12 37.5 -35.5t12.5 -74.5q0 -35 -6.5 -57.5t-19.5 -37t-38 -21.5t-61 -7q-37 0 -60.5 7t-37 21.5t-19.5 37t-6 57.5z" />
<glyph unicode="&#x2019;" d="M307 983q82 86 145.5 162t118.5 158q-25 12 -37 35.5t-12 72.5q0 37 6.5 59.5t20.5 37t37.5 20.5t60.5 6q35 0 59.5 -6t38 -20.5t19.5 -37t6 -59.5q0 -43 -8 -69.5t-25 -52.5q-25 -37 -62.5 -83t-85.5 -96.5t-101.5 -100.5t-106.5 -97z" />
<glyph unicode="&#x201a;" d="M225 -322q82 86 145.5 162t118.5 158q-25 12 -37 35.5t-12 72.5q0 37 6.5 59.5t20.5 37t37.5 20.5t60.5 6q35 0 59.5 -6t38 -20.5t19.5 -37t6 -59.5q0 -43 -8 -69.5t-25 -52.5q-25 -37 -62.5 -83t-85.5 -96.5t-101.5 -100.5t-106.5 -97z" />
<glyph unicode="&#x201c;" d="M190 1104q0 41 7.5 67.5t25.5 51.5q25 39 59.5 83t76.5 91t88.5 95t95.5 93l69 -67q-76 -82 -134 -155t-111 -159q25 -12 35 -32.5t10 -67.5q0 -63 -22.5 -89t-86.5 -26q-33 0 -54.5 6t-34.5 19.5t-18.5 35t-5.5 54.5zM637 1104q0 41 7 67.5t24 51.5q25 39 60.5 83 t77.5 91t88 95t95 93l70 -67q-76 -82 -134.5 -155t-111.5 -159q25 -12 35 -32.5t10 -67.5q0 -63 -22.5 -89t-87.5 -26q-33 0 -54.5 6t-34 19.5t-17.5 35t-5 54.5z" />
<glyph unicode="&#x201d;" d="M121 1006q74 84 132.5 156.5t113.5 156.5q-25 12 -36 33.5t-11 68.5q0 63 22.5 89t88.5 26q33 0 54 -6t34.5 -19.5t18.5 -35t5 -54.5q0 -41 -8 -66.5t-25 -51.5q-25 -39 -59.5 -84.5t-76.5 -92.5t-89 -95t-94 -91zM566 1006q76 84 134 156.5t114 156.5q-27 12 -37.5 33.5 t-10.5 68.5q0 63 22.5 89t88.5 26q31 0 53.5 -6t34.5 -19.5t18.5 -35t6.5 -54.5q0 -41 -8.5 -66.5t-24.5 -51.5q-25 -39 -60.5 -84.5t-76.5 -92.5t-88.5 -95t-96.5 -91z" />
<glyph unicode="&#x201e;" d="M55 -317q74 84 132.5 156.5t113.5 156.5q-25 12 -36 33.5t-11 68.5q0 63 22.5 89t88.5 26q33 0 54 -6t34.5 -19.5t18.5 -35t5 -54.5q0 -41 -8 -66.5t-25 -51.5q-25 -39 -59.5 -84.5t-76.5 -92.5t-89 -95t-94 -91zM500 -317q76 84 134 156.5t114 156.5q-27 12 -37.5 33.5 t-10.5 68.5q0 63 22.5 89t88.5 26q31 0 53.5 -6t34.5 -19.5t18.5 -35t6.5 -54.5q0 -41 -8.5 -66.5t-24.5 -51.5q-25 -39 -60.5 -84.5t-76.5 -92.5t-88.5 -95t-96.5 -91z" />
<glyph unicode="&#x2022;" d="M377 739q0 53 10 90t31.5 59.5t56.5 32t88 9.5t88 -9.5t56.5 -32t32 -59.5t10.5 -90q0 -55 -10.5 -91t-32 -58.5t-56.5 -31.5t-88 -9t-88 9t-56.5 31.5t-31.5 58.5t-10 91z" />
<glyph unicode="&#x2026;" d="M98 92q0 59 20.5 83t82.5 24q31 0 50 -5.5t30.5 -18.5t15.5 -33.5t4 -49.5q0 -31 -4 -51.5t-15.5 -32.5t-31 -18t-49.5 -6q-61 0 -82 23.5t-21 84.5zM461 92q0 59 20.5 83t81.5 24q31 0 50.5 -5.5t30.5 -18.5t16.5 -33.5t5.5 -49.5q0 -31 -5.5 -51.5t-16.5 -32.5 t-30.5 -18t-50.5 -6q-61 0 -81.5 23.5t-20.5 84.5zM825 92q0 59 19.5 83t81.5 24q31 0 51 -5.5t31.5 -18.5t15.5 -33.5t4 -49.5q0 -31 -4 -51.5t-15.5 -32.5t-32 -18t-50.5 -6q-61 0 -81 23.5t-20 84.5z" />
<glyph unicode="&#x202f;" horiz-adv-x="380" />
<glyph unicode="&#x2039;" d="M205 500l553 456l94 -88l-432 -366l432 -365l-94 -92z" />
<glyph unicode="&#x203a;" d="M274 133l433 365l-433 364l95 94l553 -456l-553 -455z" />
<glyph unicode="&#x205f;" horiz-adv-x="475" />
<glyph unicode="&#x20ac;" d="M82 438v117h154v50.5v51.5v49.5v47.5h-154v116h164q18 135 62 226.5t110.5 146.5t158 77.5t205.5 22.5q82 0 152 -10t125 -26l-21 -125q-59 16 -121.5 24t-134.5 8q-88 0 -152.5 -17t-110.5 -58t-73.5 -106.5t-37.5 -162.5h464v-116h-477q-2 -27 -2 -45.5v-46.5v-54.5 t2 -52.5h477v-117h-469q10 -104 41 -169.5t80 -101.5t113.5 -49.5t144.5 -13.5q68 0 131.5 10.5t128.5 26.5l21 -125q-66 -16 -139.5 -28.5t-155.5 -12.5q-115 0 -205 19.5t-155.5 72t-106.5 142.5t-55 229h-164z" />
<glyph unicode="&#x2122;" d="M18 1337v86h398v-86h-144v-624h-100v624h-154zM469 713l29 710h151l90 -327l47 -166l48 168l92 325h153l27 -710h-98l-13 458l-2 175l-49 -175l-92 -315h-129l-94 315l-49 175l-2 -175l-13 -458h-96z" />
<glyph unicode="&#x25fc;" horiz-adv-x="1003" d="M0 0v1004h1004v-1004h-1004z" />
</font>
</defs>
</svg>
